<?xml version="1.0" encoding="utf-8"?><svg viewBox="0 0 38 31" xmlns="http://www.w3.org/2000/svg" xmlns:xlink="http://www.w3.org/1999/xlink"><style>:root>svg{display:none}:root>svg:target{display:block}</style><svg viewBox="0 0 25 23" id="socials-1" xmlns="http://www.w3.org/2000/svg"><path d="M24.364.448A1.831 1.831 0 0022.482.13L1.174 8.633a1.83 1.83 0 00-.9.756c-.211.345-.304.752-.265 1.156.034.404.197.786.463 1.089.267.302.622.508 1.014.588l5.414 1.09v6.873c0 .372.108.735.311 1.044.204.31.493.55.831.692.224.091.463.139.704.14a1.799 1.799 0 001.305-.55l3-3.038 4.537 4.058c.335.3.765.466 1.212.469.196.004.392-.028.577-.094.305-.098.579-.275.796-.514.216-.238.368-.53.44-.847l4.34-19.256c.075-.332.06-.68-.043-1.004a1.88 1.88 0 00-.546-.837zM7.604 11.542L1.855 10.38 17.97 3.942l-10.365 7.6zm1.142 8.643v-5.559l2.91 2.604-2.91 2.955zm10.066.938L9.3 12.621 23.001 2.57l-4.19 18.552z"/></svg><svg viewBox="0 0 27 23" id="socials-2" xmlns="http://www.w3.org/2000/svg"><path fill-rule="evenodd" clip-rule="evenodd" d="M12.285 6.306C12.285 2.823 15.042 0 18.443 0c1.997 0 3.59.966 4.658 2.37A10.187 10.187 0 0026.303 1.1a5.292 5.292 0 01-2.261 2.924l.004.006A10.171 10.171 0 0027 3.198l-.002.004A10.616 10.616 0 0124.54 5.85c.052.357.079.714.079 1.069C24.619 14.353 19.087 23 8.913 23c-3 .003-5.937-.88-8.46-2.54a1.023 1.023 0 01-.213-1.508.895.895 0 01.37-.348.867.867 0 01.493-.087c1.804.218 3.604-.008 5.193-.718a6.084 6.084 0 01-2.06-1.526 6.26 6.26 0 01-1.268-2.256.928.928 0 01.203-.904 6.182 6.182 0 01-1.521-2.101 6.316 6.316 0 01-.537-2.557v-.068a.92.92 0 01.202-.578.882.882 0 01.516-.314 6.306 6.306 0 01-.677-2.855c0-.944.006-2.134.654-3.206a.897.897 0 01.636-.42.963.963 0 01.578-.004.984.984 0 01.481.329C5.7 4.104 8.84 5.91 12.287 6.394v-.088h-.002zM8.913 20.983a13.372 13.372 0 01-4.429-.752 10.354 10.354 0 004.707-2.1.908.908 0 00.302-.455.928.928 0 00-.009-.549.907.907 0 00-.316-.443.873.873 0 00-.509-.175 4.201 4.201 0 01-1.892-.49 4.31 4.31 0 01-1.483-1.3c.374-.03.74-.098 1.095-.194a.886.886 0 00.482-.336.922.922 0 00-.035-1.127.882.882 0 00-.502-.304 4.257 4.257 0 01-2.014-1.035 4.408 4.408 0 01-1.224-1.937c.394.097.805.155 1.227.17a.872.872 0 00.54-.165.906.906 0 00.333-.465.928.928 0 00-.007-.576.905.905 0 00-.344-.456 4.354 4.354 0 01-1.403-1.582 4.474 4.474 0 01-.508-2.072c0-.339.006-.64.026-.914 2.756 2.88 6.47 4.59 10.402 4.792a.964.964 0 00.804-.358 1.019 1.019 0 00.207-.872 4.389 4.389 0 01-.011-1.916 4.333 4.333 0 01.805-1.73 4.208 4.208 0 011.46-1.198 4.108 4.108 0 011.824-.428c2.43 0 4.207 2.305 4.207 4.905 0 6.565-4.877 14.063-13.737 14.063h.002z"/></svg><svg viewBox="0 0 38 25" id="socials-3" xmlns="http://www.w3.org/2000/svg"><path d="M33.793.508c-.047.078-.174.451-.285.84-.094.39-.316 1.168-.49 1.743l-.3 1.028-1.313.435c-.712.218-1.36.452-1.44.498-.078.047.46.296 1.219.576.759.265 1.439.545 1.518.623.079.093.3.684.49 1.322.649 2.164.585 2.164 1.234.25l.585-1.713 1.502-.482L38 5.146l-1.534-.53c-1.47-.497-1.55-.544-1.692-1.073a69.663 69.663 0 01-.522-1.868C34.046.944 33.84.43 33.793.508zM7.508 3.154c-.649.623-.158.887 3.21 1.759 3.242.856 3.496.856 3.496.077 0-.31-.143-.404-1.06-.669-1.186-.342-5.235-1.416-5.346-1.416-.031 0-.174.11-.3.25zM24.019 3.714c-1.613.42-3.02.856-3.116.934-.268.218-.253.67.016.887.19.156.87.016 3.29-.607 1.676-.451 3.147-.887 3.258-.965a.553.553 0 00-.11-.902c-.175-.078-.333-.156-.365-.14-.031 0-1.36.358-2.973.793zM9.469 7.387l-.475.467v3.268c0 3.034.016 3.284.317 3.657.41.514 1.107.67 1.708.358.759-.39.854-.81.79-4.264-.047-2.926-.063-3.16-.379-3.455-.174-.171-.585-.358-.902-.42-.49-.078-.632-.016-1.06.389zM24.177 7.371c-.126.047-.395.234-.585.405-.364.311-.364.389-.364 3.72 0 3.174.016 3.407.317 3.703.727.716 1.803.56 2.245-.311.238-.467.285-.996.285-3.393 0-3.237-.127-3.766-.98-4.062-.538-.186-.57-.186-.918-.062zM1.862 11.122c-1.645.84-2.294 2.676-1.566 4.357 1.392 3.19 6.326 2.459 6.61-.965.127-1.572-.584-2.832-1.929-3.455-1.107-.513-2.04-.482-3.115.063zM30.44 11.453c-2.91.872-3.29 4.949-.553 6.287 2.435 1.183 5.045-.389 5.045-3.05 0-2.288-2.23-3.89-4.492-3.237zM8.947 19.681c-.506.545-.332 1.12.538 1.93 1.581 1.447 3.669 2.396 6.168 2.786 1.234.186 4.76.109 5.598-.14.586-.156.965-.825.712-1.277-.269-.482-.648-.607-1.423-.466-1.123.217-4.239.17-5.456-.078-1.503-.311-3.148-1.136-4.334-2.179-1.044-.918-1.392-1.027-1.803-.576z"/></svg><svg viewBox="0 0 31 31" id="socials-4" xmlns="http://www.w3.org/2000/svg"><path d="M6.442 14.734a1.319 1.319 0 011.32-1.316l2.188.008a1.315 1.315 0 011.316 1.318v8.29c.246-.073.562-.151.909-.233a1.096 1.096 0 00.845-1.069V11.45a1.32 1.32 0 011.315-1.318h2.195a1.315 1.315 0 011.316 1.318v9.545s.549-.223 1.083-.45a1.098 1.098 0 00.67-1.012V8.154a1.32 1.32 0 011.316-1.318h2.193a1.315 1.315 0 011.314 1.318v9.37c1.9-1.38 3.827-3.04 5.356-5.037a2.215 2.215 0 00.336-2.066 15.521 15.521 0 00-3.303-5.488A15.486 15.486 0 0015.302.001 15.462 15.462 0 003.913 5.206a15.523 15.523 0 00-3.827 11.94 15.537 15.537 0 001.971 6.097 1.96 1.96 0 001.869.97c.415-.037.931-.088 1.545-.16a1.095 1.095 0 00.972-1.09v-8.229M6.395 28.03a15.474 15.474 0 0016.144 1.28 15.503 15.503 0 006.178-5.72A15.542 15.542 0 0031 15.475c0-.358-.017-.71-.04-1.062C25.3 22.872 14.848 26.826 6.395 28.03"/></svg><svg viewBox="0 0 26 26" id="socials-5" xmlns="http://www.w3.org/2000/svg"><path d="M25.077 12.934a11.986 11.986 0 11-23.972.105 11.986 11.986 0 0123.972-.105z"/><path d="M18.714 9.112c-.805-.233-1.638-.563-2.483-.897-.048-.212-.236-.476-.616-.798-.551-.479-1.587-.466-2.483-.254-.988-.233-1.965-.316-2.902-.087-7.665 2.111-3.319 7.263-6.133 12.441.4.85 4.717 5.806 10.962 4.476 0 0-2.136-5.132 2.684-7.596 3.91-2.005 6.734-5.716.97-7.285z"/><path d="M19.66 12.483a.465.465 0 11-.93.005.465.465 0 01.93-.005zM13.132 7.16c.559.04 2.578.694 3.1 1.052-.435-1.26-1.897-1.427-3.1-1.053zM13.664 10.344a2.143 2.143 0 11-4.286.002 2.143 2.143 0 014.286-.002z"/><path d="M13.028 10.363a1.508 1.508 0 11-3.016 0 1.508 1.508 0 013.016 0zM21.397 13.428c-1.737 1.224-3.712 2.152-6.515 2.152-1.311 0-1.577-1.39-2.444-.71-.447.352-2.024 1.14-3.276 1.081-1.252-.06-3.28-.794-3.846-3.466-.224 2.672-.339 4.64-1.342 6.896 1.998 3.199 6.76 5.667 11.085 4.604-.465-3.245 2.37-6.422 3.967-8.048.608-.616 1.764-1.62 2.37-2.511v.002z"/><path d="M21.329 13.508c-.54.491-1.181.855-1.835 1.177-.66.313-1.35.564-2.058.75-.709.182-1.448.32-2.197.253-.749-.068-1.514-.322-2.01-.884l.024-.027c.608.395 1.31.534 2.008.554a9.43 9.43 0 002.11-.174c.702-.147 1.389-.36 2.051-.634.663-.274 1.319-.59 1.883-1.042l.024.027z"/></svg><svg viewBox="0 0 31 31" id="socials-6" xmlns="http://www.w3.org/2000/svg"><path d="M26.947 18.526c-.499.338-1.149.38-1.69.111-.623-.35-.962-1.164-.962-2.27v-3.401c0-1.635-.655-2.793-1.755-3.11-1.852-.535-3.237 1.703-3.768 2.544l-3.28 5.232v-6.385c-.038-1.47-.52-2.354-1.444-2.619-.607-.174-1.52-.106-2.405 1.227L4.31 21.457A12.547 12.547 0 012.834 15.5c0-6.994 5.669-12.68 12.658-12.68S28.166 8.506 28.166 15.5v.074c.07 1.349-.376 2.428-1.219 2.952zM31 15.5v-.069C30.941 6.914 24.006 0 15.492 0S0 6.951 0 15.5 6.946 31 15.492 31c3.919 0 7.687-1.481 10.532-4.137a1.407 1.407 0 00.075-1.994 1.406 1.406 0 00-1.965-.096l-.005.006c-5.019 4.692-12.948 4.486-17.709-.46-.118-.122-.23-.244-.343-.37l6.597-10.46v4.825c0 2.317.912 3.069 1.675 3.29.762.223 1.937.07 3.161-1.893l3.65-5.82c.113-.184.22-.348.323-.486v2.957c0 2.17.88 3.9 2.431 4.756a4.515 4.515 0 004.542-.18c1.701-1.09 2.63-3.063 2.533-5.438H31z"/></svg></svg>