<svg xmlns="http://www.w3.org/2000/svg" width="24" height="24" viewBox="0 0 24 24"><g><g><path fill="#909aa3" d="M8.265.428h5.15c.831 0 1.879-.113 2.623.048h1.123c.578.076 1.155.155 1.733.233 1.594.444 2.906 1.236 3.746 2.431 1.297 1.847 1.31 4.708 1.31 7.9v3.367c0 .54.053 1.22-.046 1.683v1.121c-.138.635-.093 1.328-.281 1.918-.54 1.697-1.43 2.983-2.81 3.833-1.768 1.09-4.625 1.028-7.491 1.03H9.95c-.542 0-1.224.051-1.686-.048H7.14c-.635-.137-1.33-.094-1.92-.281-1.96-.622-3.451-1.748-4.214-3.552-.366-.867-.38-1.838-.608-2.9V16.09C.3 15.628.352 14.947.352 14.407v-3.273c0-2.153-.127-4.504.421-6.17.732-2.23 2.31-3.61 4.636-4.255C5.986.63 6.564.552 7.14.476 7.48.402 8.01.585 8.265.428zm-.14 2.152c-.252.15-1.705.08-2.108.186-1.494.394-2.545 1.189-3.09 2.525-.53 1.298-.421 3.278-.421 5.05 0 4.056-.592 8.918 1.826 10.61 1.832 1.284 5.803.89 8.85.89 2.311 0 5.05.198 6.508-.702.633-.392 1.285-1.067 1.592-1.776.839-1.942.515-6.173.515-8.93 0-2.493.02-4.807-1.03-6.218-.682-.916-1.765-1.248-3.09-1.542-.5-.017-1-.032-1.499-.047-.773-.165-1.855-.046-2.716-.046H8.125zM18.19 4.495c2.061-.055 2.186 2.435.515 2.851-.988.249-1.993-.913-1.638-1.87.234-.629.625-.643 1.123-.98zm-6.274 1.638c2.978-.028 4.864 1.566 5.76 3.645.553 1.286.74 3.246.14 4.675-.732 1.744-2.103 2.997-3.98 3.6-.45.144-.966.13-1.452.233-.814.173-2.172-.345-2.669-.56-2.409-1.043-4.688-4.278-3.23-7.761a6.297 6.297 0 0 1 3.418-3.413c.442-.183.968-.264 1.451-.373.194-.044.429.034.562-.046zm-.047 2.15c-.272.164-.908.146-1.217.28a4.16 4.16 0 0 0-2.248 2.384c-.812 2.232.68 4.06 2.06 4.769.422.216 1.236.582 1.967.422 1.688-.372 2.763-1.015 3.371-2.432 1.227-2.858-1.175-5.444-3.933-5.423z"/><path fill="#909aa3" d="M8.265.428h5.15c.831 0 1.879-.113 2.623.048h1.123c.578.076 1.155.155 1.733.233 1.594.444 2.906 1.236 3.746 2.431 1.297 1.847 1.31 4.708 1.31 7.9v3.367c0 .54.053 1.22-.046 1.683v1.121c-.138.635-.093 1.328-.281 1.918-.54 1.697-1.43 2.983-2.81 3.833-1.768 1.09-4.625 1.028-7.491 1.03H9.95c-.542 0-1.224.051-1.686-.048H7.14c-.635-.137-1.33-.094-1.92-.281-1.96-.622-3.451-1.748-4.214-3.552-.366-.867-.38-1.838-.608-2.9V16.09C.3 15.628.352 14.947.352 14.407v-3.273c0-2.153-.127-4.504.421-6.17.732-2.23 2.31-3.61 4.636-4.255C5.986.63 6.564.552 7.14.476 7.48.402 8.01.585 8.265.428zm-.14 2.152c-.252.15-1.705.08-2.108.186-1.494.394-2.545 1.189-3.09 2.525-.53 1.298-.421 3.278-.421 5.05 0 4.056-.592 8.918 1.826 10.61 1.832 1.284 5.803.89 8.85.89 2.311 0 5.05.198 6.508-.702.633-.392 1.285-1.067 1.592-1.776.839-1.942.515-6.173.515-8.93 0-2.493.02-4.807-1.03-6.218-.682-.916-1.765-1.248-3.09-1.542-.5-.017-1-.032-1.499-.047-.773-.165-1.855-.046-2.716-.046H8.125zM18.19 4.495c2.061-.055 2.186 2.435.515 2.851-.988.249-1.993-.913-1.638-1.87.234-.629.625-.643 1.123-.98zm-6.274 1.638c2.978-.028 4.864 1.566 5.76 3.645.553 1.286.74 3.246.14 4.675-.732 1.744-2.103 2.997-3.98 3.6-.45.144-.966.13-1.452.233-.814.173-2.172-.345-2.669-.56-2.409-1.043-4.688-4.278-3.23-7.761a6.297 6.297 0 0 1 3.418-3.413c.442-.183.968-.264 1.451-.373.194-.044.429.034.562-.046zm-.047 2.15c-.272.164-.908.146-1.217.28a4.16 4.16 0 0 0-2.248 2.384c-.812 2.232.68 4.06 2.06 4.769.422.216 1.236.582 1.967.422 1.688-.372 2.763-1.015 3.371-2.432 1.227-2.858-1.175-5.444-3.933-5.423z"/></g></g></svg>