<svg id="SvgjsSvg1029" width="288" height="288" xmlns="http://www.w3.org/2000/svg" version="1.1" xmlns:xlink="http://www.w3.org/1999/xlink" xmlns:svgjs="http://svgjs.com/svgjs"><defs id="SvgjsDefs1030"></defs><g id="SvgjsG1031"><svg xmlns="http://www.w3.org/2000/svg" viewBox="0 0 60 60" width="288" height="288"><path fill="none" stroke="#444444" stroke-linecap="round" stroke-linejoin="round" stroke-width="1.5" d="M55.932 8.873l.847.77a4.338 4.338 0 01.376 6.067s-5.951 6.134-7.534 6.615a1.412 1.412 0 01-.152-1.989l5.545-6.464a1.53 1.53 0 00-.132-2.141l-.819-.744M25.814 26.949h-15.8A8.231 8.231 0 001.785 35.18V50.269A8.231 8.231 0 0010.016 58.5H25.105a8.231 8.231 0 008.231-8.231V36.552" class="colorStroke1c4db8 svgStroke"></path><path fill="#2e42e8" d="M27.2,34.677a3.486,3.486,0,0,1-.739-2.812,24.951,24.951,0,0,0-6.07,4.853,80.429,80.429,0,0,0-5.975,7.2c-1.379-1.4-5.96-5.621-8.121-2.709a.5.5,0,0,0,0,.6c.939,1.245,4.732,6.286,5.84,7.992a2.812,2.812,0,0,0,4.79,0,73.531,73.531,0,0,1,7.386-9.161c1.235-1.3,3.627-3.552,5.836-5.587A3.551,3.551,0,0,1,27.2,34.677Z" class="colore82e5f svgShape"></path><path fill="none" stroke="#444444" stroke-linecap="round" stroke-linejoin="round" stroke-width="1.5" d="M32.192,22.325s-4.951,8.95-3.288,10.42S38.842,28.2,38.842,28.2" class="colorStroke1c4db8 svgStroke"></path><path fill="none" stroke="#444444" stroke-linecap="round" stroke-linejoin="round" stroke-width="1.5" d="M42.525.037h5.089A1.893,1.893,0,0,1,49.507,1.93V28.882a0,0,0,0,1,0,0H40.632a0,0,0,0,1,0,0V1.93A1.893,1.893,0,0,1,42.525.037Z" transform="rotate(41.47 45.095 14.47)" class="colorStroke1c4db8 svgStroke"></path><line x1="46.606" x2="50.6" y1="10.384" y2="5.866" fill="none" stroke="#444444" stroke-linecap="round" stroke-linejoin="round" stroke-width="1.5" class="colorStroke1c4db8 svgStroke"></line><line x1="42.712" x2="44.526" y1="14.789" y2="12.736" fill="none" stroke="#444444" stroke-linecap="round" stroke-linejoin="round" stroke-width="1.5" class="colorStroke1c4db8 svgStroke"></line><line x1="29.362" x2="33.267" y1="28.391" y2="31.704" fill="#fff" stroke="#444444" stroke-linecap="round" stroke-linejoin="round" stroke-width="1.5" class="colorStroke1c4db8 svgStroke"></line></svg></g></svg>