<svg width="816" height="816" viewBox="0 0 816 816" fill="none" xmlns="http://www.w3.org/2000/svg">
<path d="M245.2 149.733C241.2 152.4 239.733 155.333 231.867 177.2C226.933 190.667 222.667 202.667 222.267 203.867C221.867 205.733 224.667 207.2 237.867 211.733C246.8 214.667 278.933 225.6 309.333 236C339.733 246.4 381.2 260.533 401.333 267.333C421.467 274.133 453.333 284.933 472 291.333C612.267 339.067 623.067 342.667 623.733 342.133C624 341.733 628.133 331.2 632.8 318.4C637.467 305.733 642.267 293.2 643.2 290.533L645.067 285.867L628.267 279.733C618.933 276.267 596.933 268.267 579.333 262C561.733 255.6 500 233.333 442 212.4C384.133 191.467 319.333 168.133 298.267 160.533C275.2 152.267 257.733 146.667 254.8 146.667C251.733 146.667 247.867 147.867 245.2 149.733ZM269.2 181.733C276.4 187.6 271.333 200 261.6 200C254.667 200 250 190.667 254 184.533C257.6 178.933 264.133 177.733 269.2 181.733ZM295.067 193.067C298.8 196.267 298.133 204.533 293.867 207.867C289.2 211.6 284.667 211.333 280.667 207.333C275.2 202 276.4 194.133 283.2 191.2C287.733 189.333 291.333 189.867 295.067 193.067ZM321.733 202.933C325.333 207.2 324.667 213.867 320.4 217.333C313.733 222.533 304 217.867 304 209.467C304 200.133 315.6 195.733 321.733 202.933Z" fill="white"/>
<path d="M210.133 231.867C209.733 232.4 205.467 243.867 200.667 257.333C195.733 270.933 188 292.533 183.333 305.333C160.267 368.933 161.067 366.4 162.8 372.4C165.333 381.867 163.6 381.067 288 425.467C300.8 430 311.467 434 311.733 434.133C312 434.267 310 440.4 307.467 447.733C304.8 455.067 302.667 463.067 302.667 465.467C302.667 471.6 306.933 478.267 312.667 480.933C315.2 482.133 317.333 483.733 317.333 484.533C317.333 485.333 313.467 494.933 308.8 506L300.4 526L275.2 528.933C261.333 530.667 232.8 534 211.6 536.4C190.533 538.933 173.067 541.2 172.667 541.6C172 542.267 179.733 609.6 180.667 610.4C181.333 611.067 320.667 595.067 330.667 593.2C340.533 591.333 348.4 586.533 353.067 579.6C355.2 576.533 363.067 559.2 370.667 540.933C378.267 522.8 385.2 508 386 508C386.933 508 389.467 508.667 391.867 509.467C403.2 513.467 410.933 507.2 417.2 489.067C419.6 482.267 422 476.133 422.533 475.6C423.467 474.667 459.2 487.067 514.533 507.333C527.6 512.133 535.466 513.067 540.4 510.4C542 509.6 549.066 503.867 556 497.867L568.666 486.8L576.533 465.067C580.933 453.067 590.666 426.667 598.266 406.267C605.733 385.867 612 368.8 612 368.133C612 367.6 609.2 366.267 605.733 365.067C595.733 361.733 530.533 339.6 459.333 315.333C423.467 303.067 378.4 287.867 359.333 281.333C340.267 274.933 299.067 260.933 267.733 250.267C236.4 239.6 210.4 231.2 210.133 231.867Z" fill="white"/>
<path d="M661.733 318.267C655.733 332.8 637.6 376.133 621.467 414.667C605.333 453.2 592 485.6 591.733 486.533C591.333 488.667 617.333 497.867 618.8 496.267C619.333 495.733 627.333 477.333 636.667 455.333C664.667 389.2 666.667 384.933 669.6 381.733C673.2 377.867 678.933 377.733 687.867 381.333L694.533 383.867L722.667 362.4C738.667 350.267 751.6 339.333 752.667 337.2C757.2 328.533 753.467 318.267 744.533 314.4C738.267 311.733 681.867 293.6 676.533 292.533L672.667 291.867L661.733 318.267Z" fill="white"/>
<path d="M64.3999 520.8C62.6666 521.2 61.3333 521.867 61.3333 522.133C61.3333 522.533 64.5333 545.733 68.5333 573.733C72.5333 601.733 77.0666 634.8 78.7999 647.067L81.8666 669.6L88.3999 668.8C97.4666 667.467 114.4 661.067 124.4 655.2C134.8 648.8 148.133 636.267 154.667 626.4L159.733 618.8L154.933 584.8C149.6 547.6 150 548.667 138.667 539.733C124 528.133 104.533 521.6 81.9999 520.667C73.9999 520.4 65.9999 520.533 64.3999 520.8Z" fill="white"/>
</svg>
