<?xml version="1.0" standalone="no"?>
<!DOCTYPE svg PUBLIC "-//W3C//DTD SVG 20010904//EN"
 "http://www.w3.org/TR/2001/REC-SVG-20010904/DTD/svg10.dtd">
<svg version="1.0" xmlns="http://www.w3.org/2000/svg"
 width="612.000000pt" height="612.000000pt" viewBox="0 0 612.000000 612.000000"
 preserveAspectRatio="xMidYMid meet">

<g transform="translate(0.000000,612.000000) scale(0.100000,-0.100000)"
fill="#000000" stroke="none">
<path d="M1839 4997 c-30 -20 -41 -42 -100 -206 -37 -101 -69 -191 -72 -200
-3 -14 18 -25 117 -59 67 -22 308 -104 536 -182 228 -78 539 -184 690 -235
151 -51 390 -132 530 -180 1052 -358 1133 -385 1138 -381 2 3 33 82 68 178 35
95 71 189 78 209 l14 35 -126 46 c-70 26 -235 86 -367 133 -132 48 -595 215
-1030 372 -434 157 -920 332 -1078 389 -173 62 -304 104 -326 104 -23 0 -52
-9 -72 -23z m180 -240 c54 -44 16 -137 -57 -137 -52 0 -87 70 -57 116 27 42
76 51 114 21z m194 -85 c28 -24 23 -86 -9 -111 -35 -28 -69 -26 -99 4 -41 40
-32 99 19 121 34 14 61 10 89 -14z m200 -74 c27 -32 22 -82 -10 -108 -50 -39
-123 -4 -123 59 0 70 87 103 133 49z"/>
<path d="M1576 4381 c-3 -4 -35 -90 -71 -191 -37 -102 -95 -264 -130 -360
-173 -477 -167 -458 -154 -503 19 -71 6 -65 939 -398 96 -34 176 -64 178 -65
2 -1 -13 -47 -32 -102 -20 -55 -36 -115 -36 -133 0 -46 32 -96 75 -116 19 -9
35 -21 35 -27 0 -6 -29 -78 -64 -161 l-63 -150 -189 -22 c-104 -13 -318 -38
-477 -56 -158 -19 -289 -36 -292 -39 -5 -5 53 -510 60 -516 5 -5 1050 115
1125 129 74 14 133 50 168 102 16 23 75 153 132 290 57 136 109 247 115 247 7
0 26 -5 44 -11 85 -30 143 17 190 153 18 51 36 97 40 101 7 7 275 -86 690
-238 98 -36 157 -43 194 -23 12 6 65 49 117 94 l95 83 59 163 c33 90 106 288
163 441 56 153 103 281 103 286 0 4 -21 14 -47 23 -75 25 -564 191 -1098 373
-269 92 -607 206 -750 255 -143 48 -452 153 -687 233 -235 80 -430 143 -432
138z"/>
<path d="M4963 3733 c-45 -109 -181 -434 -302 -723 -121 -289 -221 -532 -223
-539 -3 -16 192 -85 203 -73 4 4 64 142 134 307 210 496 225 528 247 552 27
29 70 30 137 3 l50 -19 211 161 c120 91 217 173 225 189 34 65 6 142 -61 171
-47 20 -470 156 -510 164 l-29 5 -82 -198z"/>
<path d="M483 2214 c-13 -3 -23 -8 -23 -10 0 -3 24 -177 54 -387 30 -210 64
-458 77 -550 l23 -169 49 6 c68 10 195 58 270 102 78 48 178 142 227 216 l38
57 -36 255 c-40 279 -37 271 -122 338 -110 87 -256 136 -425 143 -60 2 -120 1
-132 -1z"/>
</g>
</svg>
