<svg width="288" height="288" viewBox="0 0 288 288" fill="none" xmlns="http://www.w3.org/2000/svg">
<g clip-path="url(#clip0_507_11851)">
<path d="M234.63 195.75C234.63 211.842 221.472 225 205.38 225H161.28L138.24 248.31C134.1 252.45 127.44 252.45 123.3 248.31L100.35 225H56.25C40.167 225 27 211.842 27 195.75V92.7C27 76.5 40.05 63.45 56.16 63.45H205.38C221.535 63.45 234.63 76.545 234.63 92.7V195.75Z" fill="#0353A1"/>
<path d="M220.5 117.585C242.868 117.585 261 99.4525 261 77.085C261 54.7174 242.868 36.585 220.5 36.585C198.132 36.585 180 54.7174 180 77.085C180 99.4525 198.132 117.585 220.5 117.585Z" fill="#0353A1"/>
<path d="M73.7729 144.225C73.7729 151.02 79.281 156.528 86.076 156.528C92.871 156.528 98.379 151.02 98.379 144.225C98.379 137.43 92.871 131.922 86.076 131.922C79.281 131.922 73.7729 137.43 73.7729 144.225ZM118.476 144.225C118.476 151.02 123.984 156.528 130.779 156.528C137.574 156.528 143.082 151.02 143.082 144.225C143.082 137.43 137.574 131.922 130.779 131.922C123.984 131.922 118.476 137.43 118.476 144.225ZM175.482 156.528C182.277 156.528 187.785 151.02 187.785 144.225C187.785 137.43 182.277 131.922 175.482 131.922C168.687 131.922 163.179 137.43 163.179 144.225C163.179 151.02 168.687 156.528 175.482 156.528Z" fill="white"/>
<path d="M234.63 144.27C230.157 144.27 226.53 147.897 226.53 152.37V195.75C226.53 207.414 217.044 216.9 205.38 216.9H161.28C159.111 216.9 157.041 217.773 155.52 219.312L132.516 242.586C131.535 243.576 130.014 243.567 129.078 242.631L106.128 219.321C104.607 217.773 102.528 216.9 100.359 216.9H56.2589C44.5949 216.9 35.1089 207.414 35.1089 195.75V92.6909C35.1089 81.0269 44.5589 71.5409 56.1689 71.5409H145.359C149.832 71.5409 153.459 67.9139 153.459 63.4409C153.459 58.9679 149.832 55.3409 145.359 55.3409H56.1599C35.6129 55.3409 18.8999 72.0989 18.8999 92.6909V195.75C18.8999 216.342 35.6579 233.1 56.2499 233.1H96.9569L117.576 254.034C121.104 257.571 125.793 259.506 130.77 259.506C135.747 259.506 140.436 257.562 144 253.998L164.664 233.1H205.38C225.972 233.1 242.73 216.342 242.73 195.75V152.37C242.73 147.897 239.103 144.27 234.63 144.27ZM228.348 64.5479L216.18 74.3489L213.948 71.5049C211.194 67.9769 206.1 67.3739 202.581 70.1279C199.062 72.8819 198.441 77.9759 201.204 81.4949L208.503 90.8009C209.835 92.5019 211.806 93.6089 213.957 93.8519C214.263 93.8879 214.569 93.9059 214.875 93.9059C216.72 93.9059 218.511 93.2849 219.951 92.1149L238.5 77.1659C241.983 74.3579 242.532 69.2639 239.724 65.7809C236.925 62.2979 231.822 61.7489 228.348 64.5479Z" fill="white"/>
<path d="M254.862 42.723C235.926 23.778 205.092 23.769 186.129 42.723C167.184 61.668 167.184 92.502 186.129 111.456C195.606 120.924 208.053 125.667 220.491 125.667C232.929 125.667 245.385 120.933 254.853 111.456C273.816 92.502 273.816 61.677 254.862 42.723ZM243.414 99.999C230.778 112.626 210.222 112.626 197.586 99.999C184.959 87.363 184.959 66.807 197.586 54.18C203.904 47.862 212.202 44.703 220.5 44.703C228.798 44.703 237.096 47.862 243.414 54.171C256.041 66.807 256.041 87.372 243.414 99.999Z" fill="white"/>
</g>
<defs>
<clipPath id="clip0_507_11851">
<rect width="288" height="288" fill="white"/>
</clipPath>
</defs>
</svg>
