<svg width="208" height="179" xmlns="http://www.w3.org/2000/svg">

 <g>
  <title>background</title>
  <rect fill="none" id="canvas_background" height="181" width="210" y="-1" x="-1"/>
 </g>
 <g>
  <title>Layer 1</title>
  <g stroke="null" id="svg_1">
   <path stroke="null" id="svg_2" d="m187,15.693c0,-6.2871 -5.1129,-11.4 -11.400009,-11.4l-148.199991,0c-6.2871,0 -11.4,5.1129 -11.4,11.4c0,5.29815 3.648001,9.721349 8.549999,10.995299l0,138.384592l8.549999,-8.549988l17.100002,17.099991l17.100002,-17.099991l17.099991,17.099991l17.100006,-17.099991l17.099998,17.099991l17.099998,-17.099991l17.099991,17.099991l17.100006,-17.099991l8.550003,8.549988l0,-138.384592c4.902008,-1.273951 8.550003,-5.697149 8.550003,-10.995299zm-14.25,135.620095l-2.850006,-2.849991l-17.100006,17.099991l-17.099991,-17.099991l-17.099998,17.099991l-17.099998,-17.099991l-17.100006,17.099991l-17.099991,-17.099991l-17.100002,17.099991l-17.100002,-17.099991l-2.849998,2.849991l0,-124.220095l0,-8.550001l142.5,0l0,8.550001l0,124.220095zm5.699997,-130.686745l0,-7.783351l-153.899998,0l0,7.783351c-1.70145,-0.983252 -2.849998,-2.827202 -2.849998,-4.933351c0,-3.14355 2.55645,-5.7 5.699999,-5.7l148.199991,0c3.143555,0 5.699997,2.55645 5.699997,5.7c0,2.106149 -1.148544,3.950099 -2.849991,4.933351z"/>
   <path stroke="null" id="svg_3" d="m141.399994,118.292992l-42.75,0c-1.573196,0 -2.849998,1.273956 -2.849998,2.850006s1.276802,2.849998 2.849998,2.849998l42.75,0c1.573196,0 2.850006,-1.273949 2.850006,-2.849998s-1.27681,-2.850006 -2.850006,-2.850006z"/>
   <path stroke="null" id="svg_4" d="m153.626495,119.119499c-0.513,0.538643 -0.826508,1.251144 -0.826508,2.023499c0,0.741005 0.313507,1.481995 0.826508,2.023491c0.541504,0.513 1.282501,0.826508 2.023499,0.826508c0.740997,0 1.48201,-0.313507 2.023499,-0.826508c0.513,-0.541496 0.826508,-1.282486 0.826508,-2.023491c0,-0.772354 -0.313507,-1.484856 -0.826508,-2.023499c-1.082993,-1.054497 -2.964005,-1.054497 -4.046997,0z"/>
   <path stroke="null" id="svg_5" d="m155.649994,78.392998l-42.75,0c-1.573189,0 -2.849998,1.273949 -2.849998,2.849998s1.27681,2.849998 2.849998,2.849998l42.75,0c1.573196,0 2.850006,-1.273949 2.850006,-2.849998s-1.27681,-2.849998 -2.850006,-2.849998z"/>
   <path stroke="null" id="svg_6" d="m155.649994,98.342995l-28.5,0c-1.573189,0 -2.849998,1.273956 -2.849998,2.849998s1.27681,2.849998 2.849998,2.849998l28.5,0c1.573196,0 2.850006,-1.273941 2.850006,-2.849998s-1.27681,-2.849998 -2.850006,-2.849998z"/>
   <path stroke="null" id="svg_7" d="m95.799995,101.192993c0,1.576057 1.276802,2.849998 2.849998,2.849998l5.700005,0c1.573196,0 2.849998,-1.273941 2.849998,-2.849998s-1.276802,-2.849998 -2.849998,-2.849998l-5.700005,0c-1.573196,0 -2.849998,1.273956 -2.849998,2.849998z"/>
   <path stroke="null" id="svg_8" d="m144.25,61.292995c0,-1.57605 -1.27681,-2.849998 -2.850006,-2.849998l-42.75,0c-1.573196,0 -2.849998,1.273949 -2.849998,2.849998s1.276802,2.850002 2.849998,2.850002l42.75,0c1.573196,0 2.850006,-1.273949 2.850006,-2.850002z"/>
   <path stroke="null" id="svg_9" d="m153.626495,59.269497c-0.513,0.538651 -0.826508,1.251148 -0.826508,2.023499c0,0.741001 0.313507,1.482002 0.826508,2.023502c0.541504,0.513 1.282501,0.8265 2.023499,0.8265c0.769501,0 1.48201,-0.313499 2.023499,-0.8265c0.513,-0.5415 0.826508,-1.282501 0.826508,-2.023502s-0.313507,-1.484848 -0.826508,-2.023499c-1.054489,-1.054501 -2.992493,-1.054501 -4.046997,0z"/>
   <path stroke="null" id="svg_10" d="m103.523491,83.266495c0.513008,-0.541496 0.826508,-1.253998 0.826508,-2.023499c0,-0.772354 -0.313499,-1.484848 -0.826508,-2.023499c-1.054497,-1.054504 -2.963997,-1.054504 -4.046989,0c-0.513,0.538651 -0.826508,1.251144 -0.826508,2.023499c0,0.769501 0.313507,1.482002 0.826508,2.023499c0.541496,0.513 1.282494,0.8265 2.023499,0.8265c0.740997,0 1.481995,-0.313499 2.023491,-0.8265z"/>
   <path stroke="null" id="svg_11" d="m117.773491,103.216492c0.513,-0.541496 0.826508,-1.253998 0.826508,-2.023499c0,-0.772346 -0.313507,-1.510498 -0.826508,-2.023499c-1.054497,-1.054497 -2.963997,-1.054497 -4.046989,0c-0.513,0.538651 -0.826508,1.282501 -0.826508,2.023499s0.313507,1.482002 0.826508,2.023499c0.541496,0.513 1.282501,0.8265 2.023499,0.8265c0.74099,0 1.481995,-0.313499 2.023491,-0.8265z"/>
   <circle stroke="null" id="svg_13" r="2.85" cy="35.642999" cx="129.999996"/>
   <circle stroke="null" id="svg_14" r="2.85" cy="35.642999" cx="118.599997"/>
   <circle stroke="null" id="svg_15" r="2.85" cy="35.642999" cx="141.399996"/>
   <circle stroke="null" id="svg_16" r="2.85" cy="35.642999" cx="107.199997"/>
   <circle stroke="null" id="svg_17" r="2.85" cy="35.642999" cx="152.799995"/>
   <circle stroke="null" id="svg_18" r="2.85" cy="35.642999" cx="72.999998"/>
   <circle stroke="null" id="svg_19" r="2.85" cy="35.642999" cx="84.399998"/>
   <circle stroke="null" id="svg_20" r="2.85" cy="35.642999" cx="95.799997"/>
   <circle stroke="null" id="svg_21" r="2.85" cy="35.642999" cx="164.199995"/>
   <circle stroke="null" id="svg_22" r="2.85" cy="35.642999" cx="61.599998"/>
   <circle stroke="null" id="svg_23" r="2.85" cy="35.642999" cx="50.199999"/>
   <circle stroke="null" id="svg_24" r="2.85" cy="35.642999" cx="38.799999"/>
  </g>
  <g id="svg_25"/>
  <g id="svg_26"/>
  <g id="svg_27"/>
  <g id="svg_28"/>
  <g id="svg_29"/>
  <g id="svg_30"/>
  <g id="svg_31"/>
  <g id="svg_32"/>
  <g id="svg_33"/>
  <g id="svg_34"/>
  <g id="svg_35"/>
  <g id="svg_36"/>
  <g id="svg_37"/>
  <g id="svg_38"/>
  <g id="svg_39"/>
  <text transform="matrix(3.02908 0 0 3.02908 -87.9305 -109.481)" stroke="#000" xml:space="preserve" text-anchor="start" font-family="Helvetica, Arial, sans-serif" font-size="24" id="svg_42" y="73.113031" x="41.987184" fill-opacity="null" stroke-opacity="null" stroke-width="0" fill="#000000">P</text>
  <line stroke="#000" stroke-linecap="null" stroke-linejoin="null" id="svg_43" y2="100.999953" x2="40.374478" y1="100.999953" x1="70.12514" fill-opacity="null" stroke-opacity="null" stroke-width="5.5" fill="none"/>
 </g>
</svg>