<?xml version="1.0" encoding="utf-8"?>
<!-- Generator: Adobe Illustrator 16.0.0, SVG Export Plug-In . SVG Version: 6.00 Build 0)  -->
<!DOCTYPE svg PUBLIC "-//W3C//DTD SVG 1.1//EN" "http://www.w3.org/Graphics/SVG/1.1/DTD/svg11.dtd">
<svg version="1.1" id="NOTIFICATION" xmlns="http://www.w3.org/2000/svg" xmlns:xlink="http://www.w3.org/1999/xlink" x="0px"
	 y="0px" width="1800px" height="1800px" viewBox="0 0 1800 1800" enable-background="new 0 0 1800 1800" xml:space="preserve">
<g>
	<path fill="#333333" d="M942.432,362.391c28.336,0,78.253,16.538,120.884,52.848c33.173,28.25,72.71,77.44,72.71,151.333
		c0,17.307,14.031,31.336,31.336,31.336c17.312,0,31.336-14.029,31.336-31.336c0-175.203-166.831-266.854-256.266-266.854
		c-17.304,0-31.336,14.028-31.336,31.336C911.096,348.362,925.128,362.391,942.432,362.391z"/>
	<path fill="#333333" d="M1555.292,1240.33c-11.603-18.885-24.035-39.138-36.538-60.862c-1.408-5.24-4.108-9.945-7.79-13.722
		c-49.513-88.479-97.741-200.637-97.741-344.862c0-339.747-187.438-622.592-438.45-681.168
		c7.458-12.796,11.813-27.633,11.813-43.511c0-47.816-38.768-86.576-86.583-86.576c-47.813,0-86.581,38.759-86.581,86.576
		c0,15.878,4.35,30.715,11.813,43.511c-251.011,58.576-438.455,341.421-438.455,681.168c0,188.204-82.117,321.858-142.074,419.446
		c-47.275,76.945-81.431,132.54-53.413,182.688c34.706,62.133,150.24,84.154,527.356,89.08
		c-11.577,25.247-18.085,53.287-18.085,82.834c0,109.974,89.466,199.439,199.438,199.439c109.971,0,199.432-89.466,199.432-199.439
		c0-29.547-6.505-57.587-18.09-82.834c377.126-4.926,492.65-26.947,527.361-89.08
		C1636.728,1372.87,1602.566,1317.275,1555.292,1240.33z M900.002,1731.698c-75.415,0-136.767-61.352-136.767-136.767
		c0-30.793,10.234-59.236,27.477-82.121c34.47,0.25,70.82,0.385,109.26,0.424c0.021,0,0.039,0,0.061,0
		c38.438-0.039,74.783-0.174,109.26-0.424c17.231,22.885,27.471,51.328,27.471,82.121
		C1036.763,1670.347,975.412,1731.698,900.002,1731.698z M1553.997,1392.455c-5.909,10.575-33.067,30.156-148.601,42.466
		c-80.962,8.635-194.844,13.343-368.712,14.981c-41.952,0.395-87.355,0.612-136.683,0.66c-49.33-0.048-94.734-0.266-136.688-0.66
		c-173.864-1.639-287.75-6.347-368.713-14.981c-115.524-12.31-142.686-31.891-148.596-42.466
		c-10.098-18.081,20.114-67.255,52.102-119.314c10.208-16.613,21.303-34.704,32.686-54.227h131.308
		c17.307,0,31.335-14.029,31.335-31.336c0-17.309-14.029-31.337-31.335-31.337H365.03c44.478-87.962,84.421-199.001,84.421-335.357
		c0-165.03,47.721-321.097,134.371-439.463c84.238-115.071,196.471-182.333,316.179-189.546
		c119.712,7.213,231.939,74.476,316.182,189.546c86.646,118.366,134.367,274.434,134.367,439.463
		c0,136.356,39.939,247.396,84.424,335.357H598.516c-17.308,0-31.336,14.028-31.336,31.337c0,17.307,14.028,31.336,31.336,31.336
		h870.699c11.375,19.522,22.479,37.609,32.683,54.221C1533.88,1325.2,1564.098,1374.374,1553.997,1392.455z"/>
</g>
<g>
</g>
<g>
</g>
<g>
</g>
<g>
</g>
<g>
</g>
<g>
</g>
</svg>
