<svg width="1071" height="1071" viewBox="0 0 1071 1071" fill="none" xmlns="http://www.w3.org/2000/svg">
<path d="M560.747 215.623C577.607 215.623 607.308 225.463 632.673 247.067C652.411 263.876 675.936 293.144 675.936 337.11C675.936 347.408 684.284 355.755 694.581 355.755C704.881 355.755 713.225 347.408 713.225 337.11C713.225 232.865 613.961 178.332 560.747 178.332C550.451 178.332 542.102 186.679 542.102 196.977C542.102 207.275 550.451 215.623 560.747 215.623Z" fill="white"/>
<path d="M925.399 737.996C918.495 726.76 911.098 714.709 903.659 701.783C902.821 698.666 901.214 695.866 899.024 693.619C869.563 640.974 840.868 574.24 840.868 488.426C840.868 286.276 729.342 117.984 579.99 83.131C584.428 75.5174 587.019 66.6894 587.019 57.242C587.019 28.7915 563.952 5.72925 535.502 5.72925C507.053 5.72925 483.986 28.7909 483.986 57.242C483.986 66.6894 486.574 75.5174 491.015 83.131C341.663 117.984 230.134 286.276 230.134 488.426C230.134 600.407 181.275 679.931 145.6 737.996C117.472 783.779 97.1487 816.858 113.819 846.696C134.47 883.665 203.212 896.767 427.596 899.698C420.708 914.72 416.836 931.404 416.836 948.985C416.836 1014.42 470.068 1067.65 535.501 1067.65C600.934 1067.65 654.163 1014.42 654.163 948.985C654.163 931.404 650.293 914.72 643.4 899.698C867.79 896.767 936.527 883.665 957.18 846.696C973.853 816.858 953.527 783.779 925.399 737.996ZM535.501 1030.36C490.629 1030.36 454.125 993.856 454.125 948.984C454.125 930.662 460.214 913.739 470.474 900.122C490.983 900.271 512.612 900.351 535.483 900.374C535.496 900.374 535.507 900.374 535.52 900.374C558.39 900.351 580.016 900.271 600.529 900.122C610.782 913.739 616.875 930.662 616.875 948.984C616.874 993.857 580.37 1030.36 535.501 1030.36ZM924.628 828.511C921.112 834.803 904.953 846.454 836.211 853.778C788.038 858.916 720.279 861.717 616.827 862.692C591.866 862.927 564.851 863.056 535.501 863.084C506.149 863.056 479.134 862.926 454.171 862.692C350.722 861.716 282.96 858.915 234.787 853.778C166.05 846.454 149.889 834.803 146.372 828.511C140.364 817.753 158.34 788.494 177.373 757.519C183.447 747.634 190.048 736.87 196.821 725.254H274.95C285.247 725.254 293.594 716.907 293.594 706.609C293.594 696.31 285.247 687.963 274.95 687.963H217.193C243.657 635.626 267.423 569.558 267.423 488.426C267.423 390.233 295.817 297.373 347.374 226.945C397.496 158.478 464.274 118.457 535.501 114.166C606.729 118.457 673.504 158.479 723.629 226.945C775.183 297.373 803.577 390.234 803.577 488.426C803.577 569.558 827.341 635.627 853.81 687.963H356.117C345.819 687.963 337.472 696.31 337.472 706.609C337.472 716.907 345.819 725.254 356.117 725.254H874.183C880.951 736.869 887.558 747.631 893.629 757.515C912.659 788.494 930.638 817.753 924.628 828.511Z" fill="white"/>
</svg>
