<svg width="288" height="288" viewBox="0 0 288 288" fill="none" xmlns="http://www.w3.org/2000/svg">
<g clip-path="url(#clip0_507_11860)">
<g clip-path="url(#clip1_507_11860)">
<path d="M103.071 88.8477C96.0556 88.8477 90.3155 94.5878 90.3155 101.603V150.586H69.0134C62.1253 150.586 56.3852 156.326 56.3852 163.341V269.47C56.3852 271 56.6403 272.403 57.1505 273.679H30.8736V256.331C40.4404 254.29 47.8388 245.744 47.8388 235.539C47.8388 223.804 38.272 214.365 26.5366 214.365C14.9289 214.365 5.36204 223.804 5.36204 235.539C5.36204 245.744 12.6328 254.29 22.3272 256.331V273.679H9.57145C9.00776 273.679 8.44976 273.792 7.93055 274.011C7.41135 274.231 6.94151 274.552 6.54892 274.957C6.15632 275.361 5.84897 275.84 5.64509 276.366C5.44121 276.891 5.34496 277.452 5.36204 278.016C5.36205 279.132 5.80554 280.203 6.59496 280.992C7.38437 281.782 8.45505 282.225 9.57145 282.225H264.304C264.868 282.242 265.429 282.146 265.954 281.942C266.48 281.738 266.959 281.431 267.364 281.038C267.768 280.646 268.09 280.176 268.309 279.657C268.529 279.138 268.642 278.58 268.641 278.016C268.659 277.442 268.559 276.87 268.347 276.336C268.136 275.801 267.817 275.316 267.41 274.91C267.004 274.504 266.519 274.185 265.985 273.973C265.451 273.761 264.879 273.661 264.304 273.679H250.783C251.293 272.403 251.549 271 251.549 269.47L251.676 197.272C251.676 190.384 245.936 184.516 238.92 184.516H217.618V101.603C217.618 94.5878 211.878 88.8477 204.862 88.8477H103.071ZM103.071 97.2665H204.862C207.286 97.2665 209.199 99.1798 209.199 101.603V243.958V252.504V273.679H173.483V245.999C173.483 238.983 167.743 233.243 160.727 233.243H147.206C140.191 233.243 134.451 238.983 134.451 245.999V273.679H98.7344V101.603C98.7344 99.1798 100.648 97.2665 103.071 97.2665ZM115.7 105.813C111.107 105.813 107.281 109.64 107.281 114.232V122.778C107.281 127.37 111.107 131.324 115.7 131.324H124.246C128.838 131.324 132.792 127.37 132.792 122.778V114.232C132.792 109.64 128.838 105.813 124.246 105.813H115.7ZM149.757 105.813C145.038 105.813 141.211 109.64 141.211 114.232V122.778C141.211 127.37 145.038 131.324 149.757 131.324H158.176C162.896 131.324 166.723 127.37 166.723 122.778V114.232C166.723 109.64 162.896 105.813 158.176 105.813H149.757ZM183.688 105.813C179.096 105.813 175.269 109.64 175.269 114.232V122.778C175.269 127.37 179.096 131.324 183.688 131.324H192.234C196.826 131.324 200.653 127.37 200.653 122.778V114.232C200.653 109.64 196.826 105.813 192.234 105.813H183.688ZM115.7 114.232H124.246V122.778H115.7V114.232ZM149.757 114.232H158.176V122.778H149.757V114.232ZM183.688 114.232H192.234V122.778H183.688V114.232ZM115.7 139.743C111.107 139.743 107.281 143.57 107.281 148.29V156.708C107.281 161.428 111.107 165.255 115.7 165.255H124.246C128.838 165.255 132.792 161.428 132.792 156.708V148.29C132.792 143.57 128.838 139.743 124.246 139.743H115.7ZM149.757 139.743C145.038 139.743 141.211 143.57 141.211 148.29V156.708C141.211 161.428 145.038 165.255 149.757 165.255H158.176C162.896 165.255 166.723 161.428 166.723 156.708V148.29C166.723 143.57 162.896 139.743 158.176 139.743H149.757ZM183.688 139.743C179.096 139.743 175.269 143.57 175.269 148.29V156.708C175.269 161.428 179.096 165.255 183.688 165.255H192.234C196.826 165.255 200.653 161.428 200.653 156.708V148.29C200.653 143.57 196.826 139.743 192.234 139.743H183.688ZM115.7 148.29H124.246V156.708H115.7V148.29ZM149.757 148.29H158.176V156.708H149.757V148.29ZM183.688 148.29H192.234V156.708H183.688V148.29ZM69.0134 159.132H90.3155V167.551H81.7692C77.1771 167.551 73.3503 171.378 73.3503 176.097V184.516C73.3503 189.236 77.1771 193.062 81.7692 193.062H90.3155V201.609H81.7692C77.1771 201.609 73.3503 205.435 73.3503 210.028V218.574C73.3503 223.166 77.1771 226.993 81.7692 226.993H90.3155V235.539H81.7692C77.1771 235.539 73.3503 239.366 73.3503 243.958V252.504C73.3503 257.096 77.1771 261.051 81.7692 261.051H90.188V273.679H69.0134C66.7173 273.679 64.804 271.893 64.804 269.47V163.341C64.804 160.918 66.7173 159.132 69.0134 159.132ZM115.7 173.801C111.107 173.801 107.281 177.628 107.281 182.22V190.766C107.281 195.358 111.107 199.185 115.7 199.185H124.246C128.838 199.185 132.792 195.358 132.792 190.766V182.22C132.792 177.628 128.838 173.801 124.246 173.801H115.7ZM149.757 173.801C145.038 173.801 141.211 177.628 141.211 182.22V190.766C141.211 195.358 145.038 199.185 149.757 199.185H158.176C162.896 199.185 166.723 195.358 166.723 190.766V182.22C166.723 177.628 162.896 173.801 158.176 173.801H149.757ZM183.688 173.801C179.096 173.801 175.269 177.628 175.269 182.22V190.766C175.269 195.358 179.096 199.185 183.688 199.185H192.234C196.826 199.185 200.653 195.358 200.653 190.766V182.22C200.653 177.628 196.826 173.801 192.234 173.801H183.688ZM81.7692 176.097H90.3155V184.516H81.7692V176.097ZM115.7 182.22H124.246V190.766H115.7V182.22ZM149.757 182.22H158.176V190.766H149.757V182.22ZM183.688 182.22H192.234V190.766H183.688V182.22ZM217.618 193.062H238.92C241.344 193.062 243.13 194.976 243.13 197.272V269.469C243.13 271.893 241.216 273.679 238.92 273.679H217.618V261.051H226.165C230.757 261.051 234.583 257.096 234.583 252.504V243.958C234.583 239.366 230.757 235.539 226.165 235.539H217.618V226.993H226.165C230.757 226.993 234.583 223.166 234.583 218.574V210.028C234.583 205.435 230.757 201.609 226.165 201.609H217.618V193.062ZM115.7 207.732C111.107 207.732 107.281 211.558 107.281 216.15V224.697C107.281 229.289 111.107 233.116 115.7 233.116H124.246C128.838 233.116 132.792 229.289 132.792 224.697V216.15C132.792 211.558 128.838 207.732 124.246 207.732H115.7ZM183.688 207.732C179.096 207.732 175.269 211.558 175.269 216.15V224.697C175.269 229.289 179.096 233.116 183.688 233.116H192.234C196.826 233.116 200.653 229.289 200.653 224.697V216.15C200.653 211.558 196.826 207.732 192.234 207.732H183.688ZM81.7692 210.028H90.3155V218.574H81.7692V210.028ZM217.618 210.028H226.165V218.574H217.618V210.028ZM115.7 216.15H124.246V224.697H115.7V216.15ZM145.421 216.15C144.857 216.15 144.299 216.263 143.78 216.483C143.26 216.702 142.791 217.024 142.398 217.428C142.005 217.832 141.698 218.312 141.494 218.837C141.29 219.363 141.194 219.924 141.211 220.487C141.211 221.604 141.655 222.674 142.444 223.464C143.233 224.253 144.304 224.697 145.421 224.697H162.513C163.63 224.697 164.7 224.253 165.49 223.464C166.279 222.674 166.723 221.604 166.723 220.487C166.74 219.924 166.643 219.363 166.44 218.837C166.236 218.312 165.928 217.832 165.536 217.428C165.143 217.024 164.673 216.702 164.154 216.483C163.635 216.263 163.077 216.15 162.513 216.15H145.421ZM183.688 216.15H192.234V224.697H183.688V216.15ZM26.5366 222.783C33.6799 222.783 39.2924 228.396 39.2924 235.539C39.2924 242.555 33.6799 248.295 26.5366 248.295C19.521 248.295 13.9084 242.555 13.9084 235.539C13.9084 228.396 19.521 222.783 26.5366 222.783ZM147.206 241.789H160.727C163.151 241.789 164.937 243.575 164.937 245.999V273.679H142.997V245.999C142.997 243.575 144.783 241.789 147.206 241.789ZM81.7692 243.958H90.188V252.504H81.7692V243.958ZM217.618 243.958H226.165V252.504H217.618V243.958Z" fill="white"/>
</g>
</g>
<defs>
<clipPath id="clip0_507_11860">
<rect width="288" height="288" fill="white"/>
</clipPath>
<clipPath id="clip1_507_11860">
<rect width="288" height="288" fill="white"/>
</clipPath>
</defs>
</svg>
