<?xml version="1.0" ?><svg data-name="Layer 1" id="Layer_1" viewBox="0 0 64 64" xmlns="http://www.w3.org/2000/svg"><defs><style>.cls-1{fill:#190933;}</style></defs><title/><path class="cls-1" d="M49,40.49a3.08,3.08,0,0,0-3.67-.42l-1-4.06,0-.09,0-.08a1,1,0,0,0-.2-.29h0l-1.41-1.41a3,3,0,0,0-4.25,0h0l-.71-.72L51,20.05a1,1,0,0,1,.9-.27,9.86,9.86,0,0,0,4.61-.11,10.11,10.11,0,0,0,7.13-7.13,9.82,9.82,0,0,0,.27-3.65h0a2,2,0,0,0-3.42-1.17l-2.78,2.84a1,1,0,0,1-1.42,0L53.49,7.73A1,1,0,0,1,53.2,7a1,1,0,0,1,.3-.72l2.79-2.84a2,2,0,0,0,.47-2.08A2,2,0,0,0,55.11.06,10,10,0,0,0,44.33,7.47a9.81,9.81,0,0,0-.11,4.6A1,1,0,0,1,44,13L30.59,26.34,14.23,10l-.52-2.64a3,3,0,0,0-.82-1.54L7.66.59a2,2,0,0,0-2.83,0L.59,4.83a2,2,0,0,0,0,2.83l5.22,5.23a3,3,0,0,0,1.54.82l2.64.52L26.34,30.59,13,44a1,1,0,0,1-.9.27,9.86,9.86,0,0,0-4.61.11A10.11,10.11,0,0,0,.33,51.46a9.82,9.82,0,0,0-.27,3.65,2,2,0,0,0,1.33,1.65,2,2,0,0,0,2.09-.48l2.78-2.84a1,1,0,0,1,1.42,0l2.83,2.83a1,1,0,0,1,.29.7,1,1,0,0,1-.3.72L7.71,60.53a2,2,0,0,0,1.18,3.41A10.32,10.32,0,0,0,10,64a10,10,0,0,0,9.67-7.47,9.81,9.81,0,0,0,.11-4.6A1,1,0,0,1,20,51L33.41,37.66l.72.71h0a3,3,0,0,0,0,4.25L35.54,44h0a1,1,0,0,0,.29.2l.08,0,.09,0,4.05,1A3,3,0,0,0,40.49,49L54.64,63.12a3,3,0,0,0,4.24,0l4.24-4.24a3,3,0,0,0,0-4.24ZM45.37,14.38a3,3,0,0,0,.81-2.73A7.9,7.9,0,0,1,46.26,8,8.07,8.07,0,0,1,52,2.27a7.57,7.57,0,0,1,2.91-.21L52.08,4.9a3,3,0,0,0,0,4.25L54.91,12a3,3,0,0,0,4.25,0L62,9.11h0A7.83,7.83,0,0,1,61.73,12a8.08,8.08,0,0,1-5.7,5.7,7.77,7.77,0,0,1-3.68.08,3,3,0,0,0-2.74.81L36.24,32,32,27.76ZM18.63,49.62a3,3,0,0,0-.81,2.73A7.9,7.9,0,0,1,17.74,56a8.07,8.07,0,0,1-5.7,5.7,7.57,7.57,0,0,1-2.91.21l2.79-2.85a3,3,0,0,0,0-4.24L9.09,52a3,3,0,0,0-4.25,0L2.05,54.88A7.83,7.83,0,0,1,2.27,52,8.08,8.08,0,0,1,8,46.26a7.9,7.9,0,0,1,3.68-.08,3,3,0,0,0,2.74-.81L27.76,32,32,36.24ZM40.49,35.25a1,1,0,0,1,.71.29l.71.71-5.66,5.66-.71-.71a1,1,0,0,1,0-1.41l4.25-4.25A1,1,0,0,1,40.49,35.25ZM6.24,2,8,3.77,3.77,8,2,6.24Zm1,9.47L4.47,8.72,8.72,4.47l2.75,2.76a1,1,0,0,1,.28.51l.48,2.42-2.07,2.07-2.42-.48A1,1,0,0,1,7.23,11.47Zm4.67,1.84,1.41-1.41L37,35.54,35.54,37Zm30.88,24.9.85,3.39-2,2-3.39-.85ZM61.71,57.46h0l-4.25,4.25a1,1,0,0,1-1.41,0L41.91,47.56a1,1,0,0,1-.29-.7,1,1,0,0,1,.29-.71l4.24-4.24a1,1,0,0,1,.71-.29,1,1,0,0,1,.7.29L61.71,56.05a1,1,0,0,1,.29.71A1,1,0,0,1,61.71,57.46Z"/><path class="cls-1" d="M44.38,46.5a.5.5,0,0,0-.7,0,.5.5,0,0,0,0,.71L56.4,59.94a.51.51,0,0,0,.36.15.49.49,0,0,0,.35-.15.5.5,0,0,0,0-.71Z"/><path class="cls-1" d="M45.8,45.09a.5.5,0,0,0-.71.71L57.82,58.52a.49.49,0,0,0,.35.15.47.47,0,0,0,.35-.15.48.48,0,0,0,0-.7Z"/><path class="cls-1" d="M47.21,43.68a.5.5,0,0,0-.71,0,.5.5,0,0,0,0,.7L59.23,57.11a.51.51,0,0,0,.36.15.5.5,0,0,0,.35-.15.51.51,0,0,0,0-.71Z"/></svg>