<svg width="64" height="64" viewBox="0 0 64 64" fill="none" xmlns="http://www.w3.org/2000/svg">
<g clip-path="url(#clip0_507_11868)">
<path d="M48.9999 40.49C48.5158 40.0327 47.8965 39.7445 47.2348 39.6688C46.5732 39.5931 45.9048 39.7339 45.3299 40.07L44.3299 36.01V35.92V35.84C44.2809 35.7323 44.2132 35.6341 44.1299 35.55L42.7199 34.14C42.4412 33.8604 42.11 33.6384 41.7453 33.487C41.3807 33.3356 40.9897 33.2577 40.5949 33.2577C40.2 33.2577 39.8091 33.3356 39.4444 33.487C39.0798 33.6384 38.7486 33.8604 38.4699 34.14L37.7599 33.42L50.9999 20.05C51.1163 19.9347 51.2593 19.8498 51.4162 19.8027C51.5731 19.7557 51.7392 19.7479 51.8999 19.78C53.4237 20.1083 55.0035 20.0706 56.5099 19.67C58.2184 19.2095 59.776 18.3086 61.0272 17.0574C62.2784 15.8062 63.1793 14.2485 63.6399 12.54C63.9578 11.351 64.0494 10.1129 63.9099 8.89004C63.8672 8.51387 63.7187 8.15753 63.4815 7.86246C63.2443 7.56739 62.9282 7.34569 62.57 7.22315C62.2118 7.1006 61.8262 7.08225 61.458 7.17021C61.0897 7.25817 60.754 7.44883 60.4899 7.72004L57.7099 10.56C57.6169 10.6538 57.5063 10.7282 57.3845 10.7789C57.2626 10.8297 57.1319 10.8558 56.9999 10.8558C56.8679 10.8558 56.7372 10.8297 56.6153 10.7789C56.4935 10.7282 56.3829 10.6538 56.2899 10.56L53.4899 7.73004C53.3948 7.63424 53.3201 7.52017 53.2702 7.39471C53.2204 7.26925 53.1965 7.13499 53.1999 7.00004C53.1991 6.86605 53.2253 6.73327 53.2768 6.60958C53.3283 6.4859 53.4042 6.37383 53.4999 6.28004L56.2899 3.44004C56.5565 3.17298 56.7421 2.83596 56.8252 2.4679C56.9084 2.09985 56.8857 1.71577 56.7599 1.36004C56.6325 1.01165 56.4107 0.705556 56.1193 0.47598C55.8279 0.246404 55.4784 0.102392 55.1099 0.0600404C52.7227 -0.205377 50.3196 0.397321 48.3402 1.75793C46.3608 3.11855 44.9373 5.14616 44.3299 7.47004C43.9291 8.97297 43.8914 10.5497 44.2199 12.07C44.2638 12.2311 44.2666 12.4006 44.2282 12.563C44.1897 12.7255 44.1113 12.8757 43.9999 13L30.5899 26.34L14.2299 10L13.7099 7.36004C13.5952 6.77681 13.3098 6.2408 12.8899 5.82004L7.65989 0.59004C7.47414 0.404087 7.25357 0.25657 7.01077 0.155921C6.76797 0.0552724 6.50772 0.00346707 6.24489 0.00346707C5.98206 0.00346707 5.7218 0.0552724 5.47901 0.155921C5.23621 0.25657 5.01564 0.404087 4.82989 0.59004L0.58989 4.83004C0.403937 5.01579 0.256419 5.23636 0.15577 5.47916C0.0551215 5.72196 0.00331621 5.98221 0.00331621 6.24504C0.00331621 6.50787 0.0551215 6.76813 0.15577 7.01092C0.256419 7.25372 0.403937 7.47429 0.58989 7.66004L5.80989 12.89C6.23065 13.3099 6.76666 13.5953 7.34989 13.71L9.98989 14.23L26.3399 30.59L12.9999 44C12.8835 44.1153 12.7405 44.2003 12.5836 44.2473C12.4266 44.2944 12.2605 44.3022 12.0999 44.27C10.5761 43.9418 8.99626 43.9795 7.48989 44.38C5.78187 44.8317 4.22201 45.723 2.96575 46.9652C1.70949 48.2075 0.800682 49.7572 0.32989 51.46C0.0119519 52.649 -0.0796386 53.8872 0.0598895 55.11C0.104758 55.482 0.253226 55.834 0.488375 56.1257C0.723524 56.4174 1.03589 56.6372 1.38989 56.76C1.74789 56.8867 2.13455 56.9088 2.50466 56.8238C2.87477 56.7388 3.21303 56.5502 3.47989 56.28L6.25989 53.44C6.35285 53.3463 6.46345 53.2719 6.58531 53.2211C6.70717 53.1704 6.83788 53.1442 6.96989 53.1442C7.1019 53.1442 7.23261 53.1704 7.35447 53.2211C7.47633 53.2719 7.58693 53.3463 7.67989 53.44L10.5099 56.27C10.6946 56.4563 10.7988 56.7077 10.7999 56.97C10.8007 57.104 10.7745 57.2368 10.723 57.3605C10.6714 57.4842 10.5956 57.5962 10.4999 57.69L7.70989 60.53C7.44144 60.7952 7.2535 61.131 7.16778 61.4985C7.08206 61.866 7.10206 62.2502 7.22546 62.6068C7.34886 62.9634 7.57064 63.2779 7.86516 63.5138C8.15968 63.7497 8.51494 63.8975 8.88989 63.94C9.25854 63.98 9.62908 64 9.99989 64C12.2107 63.999 14.3589 63.2654 16.1085 61.9138C17.8581 60.5622 19.1105 58.669 19.6699 56.53C20.0707 55.0271 20.1084 53.4504 19.7799 51.93C19.736 51.769 19.7332 51.5995 19.7716 51.4371C19.81 51.2746 19.8885 51.1244 19.9999 51L33.4099 37.66L34.1299 38.37C33.8502 38.6488 33.6283 38.9799 33.4769 39.3446C33.3255 39.7092 33.2475 40.1002 33.2475 40.495C33.2475 40.8899 33.3255 41.2808 33.4769 41.6455C33.6283 42.0102 33.8502 42.3413 34.1299 42.62L35.5399 44C35.624 44.0833 35.7222 44.1511 35.8299 44.2H35.9099H35.9999L40.0499 45.2C39.6695 45.7856 39.5053 46.4856 39.5857 47.1793C39.666 47.8729 39.9858 48.5169 40.4899 49L54.6399 63.12C55.2024 63.6818 55.9649 63.9974 56.7599 63.9974C57.5549 63.9974 58.3174 63.6818 58.8799 63.12L63.1199 58.88C63.6817 58.3175 63.9973 57.555 63.9973 56.76C63.9973 55.965 63.6817 55.2025 63.1199 54.64L48.9999 40.49ZM45.3699 14.38C45.7205 14.0277 45.9781 13.5938 46.1194 13.1173C46.2608 12.6408 46.2816 12.1366 46.1799 11.65C45.9212 10.4438 45.9486 9.19377 46.2599 8.00004C46.6258 6.62331 47.3496 5.36797 48.3578 4.36156C49.3659 3.35515 50.6225 2.63354 51.9999 2.27004C52.9471 2.01201 53.9354 1.94068 54.9099 2.06004L52.0799 4.90004C51.8002 5.17875 51.5783 5.50993 51.4269 5.87458C51.2755 6.23924 51.1975 6.6302 51.1975 7.02504C51.1975 7.41988 51.2755 7.81084 51.4269 8.1755C51.5783 8.54015 51.8002 8.87133 52.0799 9.15004L54.9099 12C55.1886 12.2797 55.5198 12.5016 55.8844 12.653C56.2491 12.8045 56.64 12.8824 57.0349 12.8824C57.4297 12.8824 57.8207 12.8045 58.1853 12.653C58.55 12.5016 58.8812 12.2797 59.1599 12L61.9999 9.11004C62.0908 10.0818 61.9992 11.062 61.7299 12C61.3619 13.366 60.6418 14.6113 59.6415 15.6116C58.6412 16.6119 57.3958 17.3321 56.0299 17.7C54.8273 18.0211 53.5653 18.0485 52.3499 17.78C51.8618 17.6766 51.3557 17.6965 50.8773 17.8379C50.3988 17.9793 49.9632 18.2378 49.6099 18.59L36.2399 32L31.9999 27.76L45.3699 14.38ZM18.6299 49.62C18.2793 49.9724 18.0217 50.4063 17.8803 50.8828C17.7389 51.3593 17.7182 51.8635 17.8199 52.35C18.0786 53.5563 18.0512 54.8063 17.7399 56C17.3728 57.3664 16.653 58.6123 15.6526 59.6127C14.6521 60.6131 13.4063 61.333 12.0399 61.7C11.0927 61.9581 10.1043 62.0294 9.12989 61.91L11.9199 59.06C12.4817 58.4975 12.7972 57.735 12.7972 56.94C12.7972 56.145 12.4817 55.3825 11.9199 54.82L9.08989 52C8.81118 51.7204 8.48 51.4985 8.11535 51.347C7.75069 51.1956 7.35973 51.1177 6.96489 51.1177C6.57005 51.1177 6.17909 51.1956 5.81443 51.347C5.44978 51.4985 5.1186 51.7204 4.83989 52L2.04989 54.88C1.94399 53.9147 2.01859 52.9381 2.26989 52C2.63433 50.6231 3.35625 49.367 4.36252 48.359C5.36878 47.351 6.62362 46.6269 7.99989 46.26C9.20315 45.944 10.464 45.9166 11.6799 46.18C12.1679 46.2835 12.6741 46.2636 13.1525 46.1222C13.6309 45.9808 14.0665 45.7222 14.4199 45.37L27.7599 32L31.9999 36.24L18.6299 49.62ZM40.4899 35.25C40.6215 35.2493 40.752 35.2745 40.8738 35.3243C40.9956 35.374 41.1065 35.4474 41.1999 35.54L41.9099 36.25L36.2499 41.91L35.5399 41.2C35.3536 41.0127 35.2491 40.7592 35.2491 40.495C35.2491 40.2309 35.3536 39.9774 35.5399 39.79L39.7899 35.54C39.9762 35.3553 40.2276 35.2511 40.4899 35.25ZM6.23989 2.00004L7.99989 3.77004L3.76989 8.00004L1.99989 6.24004L6.23989 2.00004ZM7.23989 11.47L4.46989 8.72004L8.71989 4.47004L11.4699 7.23004C11.6117 7.36853 11.7092 7.54605 11.7499 7.74004L12.2299 10.16L10.1599 12.23L7.73989 11.75C7.5459 11.7093 7.36838 11.6119 7.22989 11.47H7.23989ZM11.9099 13.31L13.3199 11.9L36.9999 35.54L35.5399 37L11.9099 13.31ZM42.7899 38.21L43.6399 41.6L41.6399 43.6L38.2499 42.75L42.7899 38.21ZM61.7099 57.46L57.4599 61.71C57.2725 61.8963 57.0191 62.0008 56.7549 62.0008C56.4907 62.0008 56.2373 61.8963 56.0499 61.71L41.9099 47.56C41.7251 47.3738 41.621 47.1224 41.6199 46.86C41.6191 46.7284 41.6444 46.598 41.6941 46.4761C41.7439 46.3543 41.8172 46.2435 41.9099 46.15L46.1499 41.91C46.2433 41.8174 46.3541 41.744 46.476 41.6943C46.5978 41.6445 46.7283 41.6193 46.8599 41.62C47.1222 41.6211 47.3736 41.7253 47.5599 41.91L61.7099 56.05C61.8026 56.1435 61.8759 56.2543 61.9257 56.3761C61.9754 56.498 62.0007 56.6284 61.9999 56.76C61.9988 57.0224 61.8946 57.2738 61.7099 57.46Z" fill="white"/>
<path d="M44.3799 46.5C44.2864 46.4084 44.1608 46.3571 44.0299 46.3571C43.899 46.3571 43.7733 46.4084 43.6799 46.5C43.633 46.5465 43.5958 46.6018 43.5704 46.6627C43.5451 46.7236 43.532 46.789 43.532 46.855C43.532 46.921 43.5451 46.9863 43.5704 47.0473C43.5958 47.1082 43.633 47.1635 43.6799 47.21L56.3999 59.94C56.4953 60.0357 56.6247 60.0897 56.7599 60.09C56.8253 60.0896 56.8899 60.0761 56.9501 60.0504C57.0102 60.0246 57.0645 59.9871 57.1099 59.94C57.1567 59.8935 57.1939 59.8382 57.2193 59.7773C57.2447 59.7163 57.2578 59.651 57.2578 59.585C57.2578 59.519 57.2447 59.4536 57.2193 59.3927C57.1939 59.3318 57.1567 59.2765 57.1099 59.23L44.3799 46.5Z" fill="white"/>
<path d="M45.7999 45.09C45.7058 44.9959 45.5781 44.943 45.4449 44.943C45.3118 44.943 45.1841 44.9959 45.0899 45.09C44.9958 45.1842 44.9429 45.3119 44.9429 45.445C44.9429 45.5782 44.9958 45.7059 45.0899 45.8L57.8199 58.52C57.8653 58.5671 57.9196 58.6047 57.9797 58.6304C58.0399 58.6562 58.1045 58.6697 58.1699 58.67C58.2355 58.6708 58.3005 58.6579 58.3608 58.6321C58.4211 58.6062 58.4753 58.5681 58.5199 58.52C58.5677 58.4751 58.6059 58.4209 58.6319 58.3607C58.658 58.3005 58.6714 58.2356 58.6714 58.17C58.6714 58.1044 58.658 58.0395 58.6319 57.9793C58.6059 57.9191 58.5677 57.8649 58.5199 57.82L45.7999 45.09Z" fill="white"/>
<path d="M47.2101 43.68C47.1636 43.6331 47.1083 43.5959 47.0474 43.5706C46.9865 43.5452 46.9211 43.5321 46.8551 43.5321C46.7891 43.5321 46.7237 43.5452 46.6628 43.5706C46.6019 43.5959 46.5466 43.6331 46.5001 43.68C46.4085 43.7735 46.3572 43.8991 46.3572 44.03C46.3572 44.1609 46.4085 44.2865 46.5001 44.38L59.2301 57.11C59.3255 57.2057 59.455 57.2597 59.5901 57.26C59.722 57.2581 59.8478 57.2042 59.9401 57.11C60.0324 57.0149 60.0839 56.8875 60.0839 56.755C60.0839 56.6225 60.0324 56.4952 59.9401 56.4L47.2101 43.68Z" fill="white"/>
</g>
<defs>
<clipPath id="clip0_507_11868">
<rect width="64" height="64" fill="white"/>
</clipPath>
</defs>
</svg>
