<?xml version="1.0" standalone="no"?>
<!DOCTYPE svg PUBLIC "-//W3C//DTD SVG 20010904//EN"
 "http://www.w3.org/TR/2001/REC-SVG-20010904/DTD/svg10.dtd">
<svg version="1.0" xmlns="http://www.w3.org/2000/svg"
 width="512.000000pt" height="512.000000pt" viewBox="0 0 512.000000 512.000000"
 preserveAspectRatio="xMidYMid meet">

<g transform="translate(0.000000,512.000000) scale(0.100000,-0.100000)"
fill="#000000" stroke="none">
<path d="M2400 4154 c-174 -22 -373 -78 -525 -148 -306 -142 -597 -426 -742
-726 l-38 -79 -147 -1 -148 0 0 55 c0 46 -4 60 -25 80 l-24 25 -271 0 -271 0
-24 -25 -25 -24 0 -751 0 -751 25 -24 24 -25 271 0 271 0 24 25 c21 20 25 34
25 80 l0 55 148 0 147 -1 39 -79 c174 -361 513 -656 911 -793 181 -62 305 -82
515 -82 207 0 330 19 502 76 397 132 751 438 925 800 l38 79 148 0 147 0 0
-55 c0 -46 4 -60 25 -80 l24 -25 271 0 271 0 24 25 25 24 0 751 0 751 -25 24
-24 25 -271 0 -271 0 -24 -25 c-21 -20 -25 -34 -25 -80 l0 -55 -147 0 -148 0
-38 79 c-21 44 -64 118 -95 165 -241 360 -605 602 -1029 687 -105 20 -374 34
-463 23z m428 -179 c286 -56 539 -191 747 -400 210 -209 344 -460 402 -752 25
-125 24 -384 -1 -518 -111 -595 -562 -1046 -1161 -1162 -125 -24 -397 -24
-518 0 -292 59 -544 193 -752 402 -210 209 -343 459 -402 752 -24 122 -24 404
0 526 97 486 421 883 871 1068 103 42 253 83 361 98 98 14 354 6 453 -14z
m-2188 -1415 l0 -640 -160 0 -160 0 0 640 0 640 160 0 160 0 0 -640z m4160 0
l0 -640 -160 0 -160 0 0 640 0 640 160 0 160 0 0 -640z m-3774 458 c-4 -13
-19 -77 -34 -143 -23 -107 -26 -141 -26 -315 0 -174 3 -208 26 -315 15 -66 30
-130 34 -142 6 -23 6 -23 -110 -23 l-116 0 0 480 0 480 116 0 c116 0 116 0
110 -22z m3294 -458 l0 -480 -116 0 c-116 0 -116 0 -110 23 4 12 19 74 33 137
23 103 26 137 26 320 0 185 -3 216 -26 320 -14 63 -29 125 -33 138 -6 22 -6
22 110 22 l116 0 0 -480z"/>
<path d="M2420 3834 c-293 -38 -560 -167 -763 -371 -476 -475 -502 -1239 -60
-1743 495 -563 1356 -588 1875 -52 148 153 237 299 303 495 84 254 84 535 0
792 -65 200 -160 352 -314 506 -182 182 -382 293 -631 350 -83 19 -331 33
-410 23z m315 -169 c467 -75 826 -424 927 -900 16 -77 16 -333 0 -410 -98
-461 -436 -799 -897 -897 -77 -16 -333 -16 -410 0 -348 74 -626 281 -783 580
-173 331 -175 697 -7 1032 214 427 696 672 1170 595z"/>
<path d="M2160 3360 l0 -80 80 0 80 0 0 80 0 80 -80 0 -80 0 0 -80z"/>
<path d="M2480 3360 l0 -80 80 0 80 0 0 80 0 80 -80 0 -80 0 0 -80z"/>
<path d="M2800 3360 l0 -80 80 0 80 0 0 80 0 80 -80 0 -80 0 0 -80z"/>
<path d="M1785 3095 c-25 -24 -25 -26 -25 -215 0 -189 0 -191 25 -215 l24 -25
751 0 751 0 24 25 c25 24 25 26 25 215 0 189 0 191 -25 215 l-24 25 -751 0
-751 0 -24 -25z m1415 -215 l0 -80 -640 0 -640 0 0 80 0 80 640 0 640 0 0 -80z"/>
<path d="M1760 2400 l0 -80 80 0 80 0 0 80 0 80 -80 0 -80 0 0 -80z"/>
<path d="M2080 2400 l0 -80 80 0 80 0 0 80 0 80 -80 0 -80 0 0 -80z"/>
<path d="M2400 2400 l0 -80 80 0 80 0 0 80 0 80 -80 0 -80 0 0 -80z"/>
<path d="M2880 2391 l0 -89 -30 -12 c-68 -28 -130 -129 -130 -212 0 -81 59
-176 133 -215 41 -21 124 -27 176 -13 90 24 171 132 171 228 0 83 -62 184
-130 212 l-30 12 0 89 0 89 -80 0 -80 0 0 -89z m135 -256 c50 -49 15 -135 -55
-135 -41 0 -80 39 -80 80 0 41 39 80 80 80 19 0 40 -9 55 -25z"/>
<path d="M1760 2080 l0 -80 80 0 80 0 0 80 0 80 -80 0 -80 0 0 -80z"/>
<path d="M2080 2080 l0 -80 80 0 80 0 0 80 0 80 -80 0 -80 0 0 -80z"/>
<path d="M2400 2080 l0 -80 80 0 80 0 0 80 0 80 -80 0 -80 0 0 -80z"/>
</g>
</svg>
