<svg width="128" height="128" viewBox="0 0 128 128" fill="none" xmlns="http://www.w3.org/2000/svg">
<g clip-path="url(#clip0_507_11822)">
<path d="M8 112V16C8 11.586 11.594 8 16 8H96C100.414 8 104 11.586 104 16V63.031L112 55.031V16C112 7.164 104.836 0 96 0H16C7.164 0 0 7.164 0 16V112C0 120.836 7.164 128 16 128H60V120H16C11.594 120 8 116.414 8 112ZM88 24H24V32H88V24ZM88 40H24V48H88V40ZM88 56H24V64H88V56ZM24 80H56V72H24V80ZM125.656 72L120 66.344C118.437 64.781 116.391 64 114.344 64C112.297 64 110.25 64.781 108.688 66.344L74.344 100.688C72.781 102.25 68 108.293 68 110.34L64 128L81.656 124C81.656 124 89.75 119.219 91.312 117.656L125.656 83.312C128.781 80.188 128.781 75.121 125.656 72ZM88.492 114.82C88.039 115.25 86.472 116.308 84.558 117.527L74.195 107.164C75.258 105.707 76.441 104.242 77.172 103.516L103.031 77.657L114.344 88.97L88.492 114.82Z" fill="white"/>
</g>
<defs>
<clipPath id="clip0_507_11822">
<rect width="128" height="128" fill="white"/>
</clipPath>
</defs>
</svg>
