<svg width="683" height="683" viewBox="0 0 683 683" fill="none" xmlns="http://www.w3.org/2000/svg">
<path d="M320 128.8C296.8 131.733 270.267 139.2 250 148.533C209.2 167.467 170.4 205.333 151.067 245.333L146 255.867L126.4 256H106.667V248.667C106.667 242.533 106.133 240.667 103.333 238L100.133 234.667H63.9999H27.8666L24.6666 238L21.3333 241.2V341.333V441.467L24.6666 444.667L27.8666 448H63.9999H100.133L103.333 444.667C106.133 442 106.667 440.133 106.667 434V426.667H126.4L146 426.8L151.2 437.333C174.4 485.467 219.6 524.8 272.667 543.067C296.8 551.333 313.333 554 341.333 554C368.933 554 385.333 551.467 408.267 543.867C461.2 526.267 508.4 485.467 531.6 437.2L536.667 426.667H556.4H576V434C576 440.133 576.533 442 579.333 444.667L582.533 448H618.667H654.8L658 444.667L661.333 441.467V341.333V241.2L658 238L654.8 234.667H618.667H582.533L579.333 238C576.533 240.667 576 242.533 576 248.667V256H556.4H536.667L531.6 245.467C528.8 239.6 523.067 229.733 518.933 223.467C486.8 175.467 438.267 143.2 381.733 131.867C367.733 129.2 331.867 127.333 320 128.8ZM377.067 152.667C415.2 160.133 448.933 178.133 476.667 206C504.667 233.867 522.533 267.333 530.267 306.267C533.6 322.933 533.467 357.467 530.133 375.333C515.333 454.667 455.2 514.8 375.333 530.267C358.667 533.467 322.4 533.467 306.267 530.267C267.333 522.4 233.733 504.533 206 476.667C178 448.8 160.267 415.467 152.4 376.4C149.2 360.133 149.2 322.533 152.4 306.267C165.333 241.467 208.533 188.533 268.533 163.867C282.267 158.267 302.267 152.8 316.667 150.8C329.733 148.933 363.867 150 377.067 152.667ZM85.3333 341.333V426.667H63.9999H42.6666V341.333V256H63.9999H85.3333V341.333ZM640 341.333V426.667H618.667H597.333V341.333V256H618.667H640V341.333ZM136.8 280.267C136.267 282 134.267 290.533 132.267 299.333C129.2 313.6 128.8 318.133 128.8 341.333C128.8 364.533 129.2 369.067 132.267 383.333C134.267 392.133 136.267 400.667 136.8 402.267C137.6 405.333 137.6 405.333 122.133 405.333H106.667V341.333V277.333H122.133C137.6 277.333 137.6 277.333 136.8 280.267ZM576 341.333V405.333H560.533C545.067 405.333 545.067 405.333 545.867 402.267C546.4 400.667 548.4 392.4 550.267 384C553.333 370.267 553.733 365.733 553.733 341.333C553.733 316.667 553.333 312.533 550.267 298.667C548.4 290.267 546.4 282 545.867 280.267C545.067 277.333 545.067 277.333 560.533 277.333H576V341.333Z" fill="white"/>
<path d="M322.667 171.467C283.6 176.533 248 193.733 220.933 220.933C157.467 284.267 154 386.133 212.933 453.333C278.933 528.4 393.733 531.733 462.933 460.267C482.667 439.867 494.533 420.4 503.333 394.267C514.533 360.4 514.533 322.933 503.333 288.667C494.667 262 482 241.733 461.467 221.2C437.2 196.933 410.533 182.133 377.333 174.533C366.267 172 333.2 170.133 322.667 171.467ZM364.667 194C426.933 204 474.8 250.533 488.267 314C490.4 324.267 490.4 358.4 488.267 368.667C475.2 430.133 430.133 475.2 368.667 488.267C358.4 490.4 324.267 490.4 314 488.267C267.6 478.4 230.533 450.8 209.6 410.933C186.533 366.8 186.267 318 208.667 273.333C237.2 216.4 301.467 183.733 364.667 194Z" fill="white"/>
<path d="M288 234.667V245.333H298.667H309.333V234.667V224H298.667H288V234.667Z" fill="white"/>
<path d="M330.667 234.667V245.333H341.333H352V234.667V224H341.333H330.667V234.667Z" fill="white"/>
<path d="M373.333 234.667V245.333H384H394.667V234.667V224H384H373.333V234.667Z" fill="white"/>
<path d="M238 270C234.667 273.2 234.667 273.467 234.667 298.667C234.667 323.867 234.667 324.133 238 327.333L241.2 330.667H341.333H441.467L444.667 327.333C448 324.133 448 323.867 448 298.667C448 273.467 448 273.2 444.667 270L441.467 266.667H341.333H241.2L238 270ZM426.667 298.667V309.333H341.333H256V298.667V288H341.333H426.667V298.667Z" fill="white"/>
<path d="M234.667 362.667V373.333H245.333H256V362.667V352H245.333H234.667V362.667Z" fill="white"/>
<path d="M277.333 362.667V373.333H288H298.667V362.667V352H288H277.333V362.667Z" fill="white"/>
<path d="M320 362.667V373.333H330.667H341.333V362.667V352H330.667H320V362.667Z" fill="white"/>
<path d="M384 363.867V375.733L380 377.333C370.933 381.067 362.667 394.533 362.667 405.6C362.667 416.4 370.533 429.067 380.4 434.267C385.867 437.067 396.933 437.867 403.867 436C415.867 432.8 426.667 418.4 426.667 405.6C426.667 394.533 418.4 381.067 409.333 377.333L405.333 375.733V363.867V352H394.667H384V363.867ZM402 398C408.667 404.533 404 416 394.667 416C389.2 416 384 410.8 384 405.333C384 399.867 389.2 394.667 394.667 394.667C397.2 394.667 400 395.867 402 398Z" fill="white"/>
<path d="M234.667 405.333V416H245.333H256V405.333V394.667H245.333H234.667V405.333Z" fill="white"/>
<path d="M277.333 405.333V416H288H298.667V405.333V394.667H288H277.333V405.333Z" fill="white"/>
<path d="M320 405.333V416H330.667H341.333V405.333V394.667H330.667H320V405.333Z" fill="white"/>
</svg>
