<svg width="202" height="179" viewBox="0 0 202 179" fill="none" xmlns="http://www.w3.org/2000/svg">
<g clip-path="url(#clip0_507_9693)">
<path d="M181 15.693C181 9.40587 175.887 4.29297 169.6 4.29297H21.4C15.1129 4.29297 10 9.40587 10 15.693C10 20.9911 13.648 25.4143 18.55 26.6883V165.073L27.1 156.523L44.2 173.623L61.3 156.523L78.4 173.623L95.5 156.523L112.6 173.623L129.7 156.523L146.8 173.623L163.9 156.523L172.45 165.073V26.6883C177.352 25.4143 181 20.9911 181 15.693ZM166.75 151.313L163.9 148.463L146.8 165.563L129.7 148.463L112.6 165.563L95.5 148.463L78.4 165.563L61.3 148.463L44.2 165.563L27.1 148.463L24.25 151.313V27.093V18.543H166.75V27.093V151.313ZM172.45 20.6263V12.843H18.55V20.6263C16.8485 19.6431 15.7 17.7991 15.7 15.693C15.7 12.5494 18.2565 9.99297 21.4 9.99297H169.6C172.744 9.99297 175.3 12.5494 175.3 15.693C175.3 17.7991 174.151 19.6431 172.45 20.6263Z" fill="white" stroke="white"/>
<path d="M135.4 118.293H92.65C91.0769 118.293 89.8 119.567 89.8 121.143C89.8 122.719 91.0769 123.993 92.65 123.993H135.4C136.973 123.993 138.25 122.719 138.25 121.143C138.25 119.567 136.973 118.293 135.4 118.293Z" fill="white" stroke="white"/>
<path d="M147.627 119.119C147.114 119.658 146.8 120.371 146.8 121.143C146.8 121.884 147.114 122.625 147.627 123.166C148.168 123.679 148.909 123.993 149.65 123.993C150.391 123.993 151.132 123.679 151.674 123.166C152.187 122.625 152.5 121.884 152.5 121.143C152.5 120.371 152.187 119.658 151.674 119.119C150.591 118.065 148.71 118.065 147.627 119.119Z" fill="white" stroke="white"/>
<path d="M149.65 78.3929H106.9C105.327 78.3929 104.05 79.6669 104.05 81.2429C104.05 82.819 105.327 84.0929 106.9 84.0929H149.65C151.223 84.0929 152.5 82.819 152.5 81.2429C152.5 79.6669 151.223 78.3929 149.65 78.3929Z" fill="white" stroke="white"/>
<path d="M149.65 98.343H121.15C119.577 98.343 118.3 99.617 118.3 101.193C118.3 102.769 119.577 104.043 121.15 104.043H149.65C151.223 104.043 152.5 102.769 152.5 101.193C152.5 99.617 151.223 98.343 149.65 98.343Z" fill="white" stroke="white"/>
<path d="M89.8 101.193C89.8 102.769 91.0769 104.043 92.65 104.043H98.3501C99.9232 104.043 101.2 102.769 101.2 101.193C101.2 99.617 99.9232 98.343 98.3501 98.343H92.65C91.0769 98.343 89.8 99.617 89.8 101.193Z" fill="white" stroke="white"/>
<path d="M138.25 61.293C138.25 59.7169 136.973 58.443 135.4 58.443H92.65C91.0769 58.443 89.8 59.7169 89.8 61.293C89.8 62.869 91.0769 64.143 92.65 64.143H135.4C136.973 64.143 138.25 62.869 138.25 61.293Z" fill="white" stroke="white"/>
<path d="M147.627 59.2695C147.114 59.8082 146.8 60.5207 146.8 61.293C146.8 62.034 147.114 62.775 147.627 63.3165C148.168 63.8295 148.909 64.143 149.65 64.143C150.42 64.143 151.132 63.8295 151.674 63.3165C152.187 62.775 152.5 62.034 152.5 61.293C152.5 60.552 152.187 59.8082 151.674 59.2695C150.619 58.215 148.681 58.215 147.627 59.2695Z" fill="white" stroke="white"/>
<path d="M97.5234 83.2665C98.0364 82.725 98.3499 82.0125 98.3499 81.243C98.3499 80.4706 98.0364 79.7581 97.5234 79.2195C96.4689 78.165 94.5594 78.165 93.4764 79.2195C92.9634 79.7581 92.6499 80.4706 92.6499 81.243C92.6499 82.0125 92.9634 82.725 93.4764 83.2665C94.0179 83.7795 94.7589 84.093 95.4999 84.093C96.2409 84.093 96.9819 83.7795 97.5234 83.2665Z" fill="white" stroke="white"/>
<path d="M111.773 103.216C112.286 102.675 112.6 101.962 112.6 101.193C112.6 100.421 112.286 99.6824 111.773 99.1694C110.719 98.1149 108.809 98.1149 107.726 99.1694C107.213 99.7081 106.9 100.452 106.9 101.193C106.9 101.934 107.213 102.675 107.726 103.216C108.268 103.729 109.009 104.043 109.75 104.043C110.491 104.043 111.232 103.729 111.773 103.216Z" fill="white" stroke="white"/>
<path d="M124 38.493C125.574 38.493 126.85 37.217 126.85 35.643C126.85 34.069 125.574 32.793 124 32.793C122.426 32.793 121.15 34.069 121.15 35.643C121.15 37.217 122.426 38.493 124 38.493Z" fill="white" stroke="white"/>
<path d="M112.6 38.493C114.174 38.493 115.45 37.217 115.45 35.643C115.45 34.069 114.174 32.793 112.6 32.793C111.026 32.793 109.75 34.069 109.75 35.643C109.75 37.217 111.026 38.493 112.6 38.493Z" fill="white" stroke="white"/>
<path d="M135.4 38.493C136.974 38.493 138.25 37.217 138.25 35.643C138.25 34.069 136.974 32.793 135.4 32.793C133.826 32.793 132.55 34.069 132.55 35.643C132.55 37.217 133.826 38.493 135.4 38.493Z" fill="white" stroke="white"/>
<path d="M101.2 38.493C102.774 38.493 104.05 37.217 104.05 35.643C104.05 34.069 102.774 32.793 101.2 32.793C99.6261 32.793 98.3501 34.069 98.3501 35.643C98.3501 37.217 99.6261 38.493 101.2 38.493Z" fill="white" stroke="white"/>
<path d="M146.8 38.493C148.374 38.493 149.65 37.217 149.65 35.643C149.65 34.069 148.374 32.793 146.8 32.793C145.226 32.793 143.95 34.069 143.95 35.643C143.95 37.217 145.226 38.493 146.8 38.493Z" fill="white" stroke="white"/>
<path d="M66.9999 38.493C68.5739 38.493 69.8499 37.217 69.8499 35.643C69.8499 34.069 68.5739 32.793 66.9999 32.793C65.4259 32.793 64.1499 34.069 64.1499 35.643C64.1499 37.217 65.4259 38.493 66.9999 38.493Z" fill="white" stroke="white"/>
<path d="M78.4001 38.493C79.9741 38.493 81.2501 37.217 81.2501 35.643C81.2501 34.069 79.9741 32.793 78.4001 32.793C76.826 32.793 75.55 34.069 75.55 35.643C75.55 37.217 76.826 38.493 78.4001 38.493Z" fill="white" stroke="white"/>
<path d="M89.7999 38.493C91.374 38.493 92.6499 37.217 92.6499 35.643C92.6499 34.069 91.374 32.793 89.7999 32.793C88.2259 32.793 86.95 34.069 86.95 35.643C86.95 37.217 88.2259 38.493 89.7999 38.493Z" fill="white" stroke="white"/>
<path d="M158.2 38.493C159.774 38.493 161.05 37.217 161.05 35.643C161.05 34.069 159.774 32.793 158.2 32.793C156.626 32.793 155.35 34.069 155.35 35.643C155.35 37.217 156.626 38.493 158.2 38.493Z" fill="white" stroke="white"/>
<path d="M55.6 38.493C57.174 38.493 58.45 37.217 58.45 35.643C58.45 34.069 57.174 32.793 55.6 32.793C54.026 32.793 52.75 34.069 52.75 35.643C52.75 37.217 54.026 38.493 55.6 38.493Z" fill="white" stroke="white"/>
<path d="M44.2001 38.493C45.7741 38.493 47.0501 37.217 47.0501 35.643C47.0501 34.069 45.7741 32.793 44.2001 32.793C42.6261 32.793 41.3501 34.069 41.3501 35.643C41.3501 37.217 42.6261 38.493 44.2001 38.493Z" fill="white" stroke="white"/>
<path d="M32.7999 38.493C34.374 38.493 35.6499 37.217 35.6499 35.643C35.6499 34.069 34.374 32.793 32.7999 32.793C31.2259 32.793 29.95 34.069 29.95 35.643C29.95 37.217 31.2259 38.493 32.7999 38.493Z" fill="white" stroke="white"/>
</g>
<defs>
<clipPath id="clip0_507_9693">
<rect width="208" height="179" fill="white" transform="translate(-6)"/>
</clipPath>
</defs>
</svg>
