<svg id="SvgjsSvg1001" width="288" height="288" xmlns="http://www.w3.org/2000/svg" version="1.1" xmlns:xlink="http://www.w3.org/1999/xlink" xmlns:svgjs="http://svgjs.com/svgjs"><defs id="SvgjsDefs1002"></defs><g id="SvgjsG1008"><svg xmlns="http://www.w3.org/2000/svg" viewBox="0 0 22.578 22.578" width="288" height="288"><rect width="582" height="402" x="-1" y="-1" fill="none"></rect><g class="layer color000 svgShape" fill="#292929"><path d="M12.070361 5.785286zm-3.99 1.18c-.55 0-1 .45-1 1l0 3.84-1.67 0c-.54 0-.99.45-.99 1l0 8.32c0 .119999.02.23.06.33l-2.06 0 0-1.359999c.75-.16 1.33-.830002 1.33-1.630001 0-.919998-.75-1.66-1.67-1.66-.91 0-1.66.740002-1.66 1.66 0 .799999.57 1.470001 1.33 1.630001l0 1.359999-1 0a.33.33 0 00-.33.340002.33.33 0 00.33.329998l19.970001 0a.33.33 0 00.34-.329998.33.33 0 00-.34-.340002l-1.060001 0c.040001-.1.060001-.210001.060001-.33l.01-5.66c0-.54-.450001-1-1-1l-1.67 0 0-6.5c0-.55-.450001-1-1-1l-7.98 0zm0 .66l7.98 0c.189999 0 .34.15.34.34l0 11.16 0 .670002 0 1.659998-2.800001 0 0-2.17c0-.549999-.45-1-1-1l-1.059999 0c-.55 0-1 .450001-1 1l0 2.17-2.8 0 0-13.49c0-.19.15-.34.34-.34zm.99.67c-.36 0-.66.3-.66.66l0 .67c0 .360001.3.67.66.67l.67 0c.36 0 .67-.309999.67-.67l0-.67c0-.36-.31-.66-.67-.66l-.67 0zm2.67 0c-.37 0-.67.3-.67.66l0 .67c0 .360001.3.67.67.67l.66 0c.37 0 .67-.309999.67-.67l0-.67c0-.36-.3-.66-.67-.66l-.66 0zm2.66 0c-.36 0-.66.3-.66.66l0 .67c0 .360001.3.67.66.67l.67 0c.36 0 .660001-.309999.660001-.67l0-.67c0-.36-.300001-.66-.660001-.66l-.67 0zm-5.33.66l.67 0 0 .67-.67 0 0-.67zm2.67 0l.66 0 0 .67-.66 0 0-.67zm2.66 0l.67 0 0 .67-.67 0 0-.67zm-5.33 2c-.36 0-.66.3-.66.67l0 .660001c0 .37.3.669999.66.669999l.67 0c.36 0 .67-.299999.67-.669999l0-.660001c0-.37-.31-.67-.67-.67l-.67 0zm2.67 0c-.37 0-.67.3-.67.67l0 .660001c0 .37.3.669999.67.669999l.66 0c.37 0 .67-.299999.67-.669999l0-.660001c0-.37-.3-.67-.67-.67l-.66 0zm2.66 0c-.36 0-.66.3-.66.67l0 .660001c0 .37.3.669999.66.669999l.67 0c.36 0 .660001-.299999.660001-.669999l0-.660001c0-.37-.300001-.67-.660001-.67l-.67 0zm-5.33.67l.67 0 0 .660001-.67 0 0-.660001zm2.67 0l.66 0 0 .660001-.66 0 0-.660001zm2.66 0l.67 0 0 .660001-.67 0 0-.660001zm-8.99.85l1.67 0 0 .66-.67 0c-.36 0-.66.3-.66.67l0 .66c0 .37.3.67.66.67l.67 0 0 .67-.67 0c-.36 0-.66.299999-.66.66l0 .670002c0 .359997.3.66.66.66l.67 0 0 .669998-.67 0c-.36 0-.66.299999-.66.66l0 .670002c0 .359999.3.669998.66.669998l.66 0 0 .99-1.66 0c-.18 0-.33-.140001-.33-.33l0-8.32c0-.19.15-.33.33-.33zm3.66 1.15c-.36 0-.66.3-.66.660001l0 .669999c0 .360001.3.660001.66.660001l.67 0c.36 0 .67-.3.67-.660001l0-.669999c0-.360001-.31-.660001-.67-.660001l-.67 0zm2.67 0c-.37 0-.67.3-.67.660001l0 .669999c0 .360001.3.660001.67.660001l.66 0c.37 0 .67-.3.67-.660001l0-.669999c0-.360001-.3-.660001-.67-.660001l-.66 0zm2.66 0c-.36 0-.66.3-.66.660001l0 .669999c0 .360001.3.660001.66.660001l.67 0c.36 0 .660001-.3.660001-.660001l0-.669999c0-.360001-.300001-.660001-.660001-.660001l-.67 0zm-7.99.18l.67 0 0 .66-.67 0 0-.66zm2.66.48l.67 0 0 .669999-.67 0 0-.669999zm2.67 0l.66 0 0 .669999-.66 0 0-.669999zm2.66 0l.67 0 0 .669999-.67 0 0-.669999zm2.660001.849999l1.67 0c.189999 0 .33.150001.33.33l0 5.66c0 .189999-.150002.33-.33.33l-1.67 0 0-.99.67 0c.359999 0 .66-.309999.66-.669998l0-.670002c0-.360001-.300001-.66-.66-.66l-.67 0 0-.669998.67 0c.359999 0 .66-.300003.66-.66l0-.670002c0-.360001-.300001-.66-.66-.66l-.67 0 0-.67zm-7.990001 1.15c-.36 0-.66.299999-.66.660002l0 .669998c0 .359999.3.66.66.66l.67 0c.36 0 .67-.300001.67-.66l0-.669998c0-.360003-.31-.660002-.67-.660002l-.67 0zm5.33 0c-.36 0-.66.299999-.66.660002l0 .669998c0 .359999.3.66.66.66l.67 0c.36 0 .660001-.300001.660001-.66l0-.669998c0-.360003-.300001-.660002-.660001-.660002l-.67 0zm-7.99.18l.67 0 0 .670002-.67 0 0-.670002zm10.650001 0l.67 0 0 .670002-.67 0 0-.670002zm-7.990001.480001l.67 0 0 .669998-.67 0 0-.669998zm2.33 0a.33.33 0 00-.33.339998.33.33 0 00.33.33l1.34 0a.33.33 0 00.33-.33.33.33 0 00-.33-.339998l-1.34 0zm3 0l.67 0 0 .669998-.67 0 0-.669998zm-12.32.519999c.56 0 1 .439999 1 1 0 .549999-.44 1-1 1-.55 0-.99-.450001-.99-1 0-.560001.44-1 .99-1zm9.46 1.490002l1.059999 0c.190001 0 .33.139999.33.329998l0 2.17-1.719999 0 0-2.17c0-.189999.139999-.329998.33-.329998zm-5.13.169998l.66 0 0 .670002-.66 0 0-.670002zm10.650001 0l.67 0 0 .670002-.67 0 0-.670002zM18.41036 3.825286" fill="#292929" class="color000 svgShape"></path><path fill="#ffffff" fill-opacity="null" stroke="#0029ce" stroke-dasharray="5 2 2 2 2 2" stroke-opacity="null" d="m11.718294,3.593945" opacity=".5" class="colorfff svgShape colorStroke000 svgStroke"></path><path fill="#ffffff" fill-opacity="null" stroke="#0029ce" stroke-opacity="null" d="m11.358107,2.655805l0.569134,0l0.175866,-0.540674l0.175867,0.540674l0.569133,0l-0.460438,0.334152l0.175876,0.540674l-0.460438,-0.334161l-0.460437,0.334161l0.175875,-0.540674l-0.460438,-0.334152l0,0z" class="colorfff svgShape colorStroke000 svgStroke"></path><path fill="#ffffff" fill-opacity="null" stroke="#0029ce" stroke-opacity="null" stroke-width="null" d="M5.729634 3.78119l.569133 0 .175867-.540674.175867.540674.569133 0-.460438.334152.175876.540674-.460438-.33416-.460438.33416.175876-.540674-.460438-.334152 0 0zM2.022663 7.305062l.569133 0 .175867-.540674.175867.540674.569133 0-.460438.334151.175876.540675-.460438-.334161-.460438.334161.175876-.540675-.460438-.334151 0 0zM16.688576 3.681225l.569132 0 .175867-.540675.175867.540675.569134 0-.460438.334151.175875.540674-.460438-.33416-.460438.33416.175877-.540674-.460438-.334151 0 0zM19.454115 7.405715l.569134 0 .175867-.540674.175867.540674.569134 0-.460438.334151.175877.540674-.46044-.33416-.460438.33416.175877-.540674-.46044-.334151 0 0z" class="colorfff svgShape colorStroke000 svgStroke"></path></g></svg></g></svg>