<svg id="SvgjsSvg1019" width="288" height="288" xmlns="http://www.w3.org/2000/svg" version="1.1" xmlns:xlink="http://www.w3.org/1999/xlink" xmlns:svgjs="http://svgjs.com/svgjs"><defs id="SvgjsDefs1020"></defs><g id="SvgjsG1021"><svg xmlns="http://www.w3.org/2000/svg" enable-background="new 0 0 32 32" viewBox="0 0 32 32" width="288" height="288"><g id="Layer_12" fill="#ffffff" class="color000 svgShape"><path fill="#ffffff" d="M26.07,21.75c0,1.788-1.462,3.25-3.25,3.25h-4.9l-2.56,2.59c-0.46,0.46-1.2,0.46-1.66,0L11.15,25h-4.9   C4.463,25,3,23.538,3,21.75V10.3c0-1.8,1.45-3.25,3.24-3.25h16.58c1.795,0,3.25,1.455,3.25,3.25V21.75z" class="colorcdf6f9 svgShape"></path><circle cx="24.5" cy="8.565" r="4.5" fill="#ffffff" class="colorfff svgShape"></circle><path fill="#525252" d="M8.197 16.025c0 .755.612 1.367 1.367 1.367s1.367-.612 1.367-1.367-.612-1.367-1.367-1.367S8.197 15.27 8.197 16.025zM13.164 16.025c0 .755.612 1.367 1.367 1.367s1.367-.612 1.367-1.367-.612-1.367-1.367-1.367S13.164 15.27 13.164 16.025zM19.498 17.392c.755 0 1.367-.612 1.367-1.367s-.612-1.367-1.367-1.367-1.367.612-1.367 1.367S18.743 17.392 19.498 17.392z" class="color1a83a8 svgShape"></path><path fill="#525252" d="M26.07 16.03c-.497 0-.9.403-.9.9v4.82c0 1.296-1.054 2.35-2.35 2.35h-4.9c-.241 0-.471.097-.64.268l-2.556 2.586c-.109.11-.278.109-.382.005l-2.55-2.59c-.169-.172-.4-.269-.641-.269h-4.9c-1.296 0-2.35-1.054-2.35-2.35V10.299c0-1.296 1.05-2.35 2.34-2.35h9.91c.497 0 .9-.403.9-.9s-.403-.9-.9-.9H6.24c-2.283 0-4.14 1.862-4.14 4.15V21.75c0 2.288 1.862 4.15 4.15 4.15h4.523l2.291 2.326c.392.393.913.608 1.466.608.553 0 1.074-.216 1.47-.612l2.296-2.322h4.524c2.288 0 4.15-1.862 4.15-4.15v-4.82C26.97 16.433 26.567 16.03 26.07 16.03zM25.372 7.172L24.02 8.261l-.248-.316c-.306-.392-.872-.459-1.263-.153s-.46.872-.153 1.263l.811 1.034c.148.189.367.312.606.339.034.004.068.006.102.006.205 0 .404-.069.564-.199L26.5 8.574c.387-.312.448-.878.136-1.265C26.325 6.922 25.758 6.861 25.372 7.172z" class="color1a83a8 svgShape"></path><path fill="#525252" d="M28.318,4.747c-2.104-2.105-5.53-2.106-7.637,0c-2.105,2.105-2.105,5.531,0,7.637   c1.053,1.052,2.436,1.579,3.818,1.579s2.766-0.526,3.818-1.579C30.424,10.278,30.424,6.853,28.318,4.747z M27.046,11.111   c-1.404,1.403-3.688,1.403-5.092,0c-1.403-1.404-1.403-3.688,0-5.091c0.702-0.702,1.624-1.053,2.546-1.053s1.844,0.351,2.546,1.052   C28.449,7.423,28.449,9.708,27.046,11.111z" class="color1a83a8 svgShape"></path></g></svg></g></svg>