<svg width="288" height="288" viewBox="0 0 288 288" fill="none" xmlns="http://www.w3.org/2000/svg">
<g clip-path="url(#clip0_507_11841)">
<path d="M268.474 42.5905L272.539 46.2865C276.596 49.936 279.058 55.0321 279.395 60.4783C279.733 65.9245 277.919 71.2856 274.344 75.4081C274.344 75.4081 245.779 104.851 238.181 107.16C236.82 105.99 235.979 104.327 235.842 102.537C235.705 100.747 236.284 98.9764 237.451 97.6129L264.067 66.5857C265.33 65.1317 265.972 63.2399 265.853 61.3176C265.735 59.3954 264.866 57.5966 263.434 56.3089L259.503 52.7377M123.907 129.355H48.0673C37.5906 129.358 27.5438 133.521 20.1366 140.931C12.7293 148.34 8.56811 158.387 8.56812 168.864V241.291C8.56812 251.77 12.7306 261.819 20.14 269.228C27.5493 276.638 37.5985 280.8 48.0769 280.8H120.504C130.983 280.8 141.032 276.638 148.441 269.228C155.85 261.819 160.013 251.77 160.013 241.291V175.45" stroke="white" stroke-width="7.2" stroke-linecap="round" stroke-linejoin="round"/>
<path d="M130.56 166.45C129.032 164.588 127.924 162.418 127.312 160.088C126.7 157.759 126.598 155.325 127.013 152.952C116.144 159.147 106.313 167.007 97.8769 176.246C87.6544 187.2 78.0782 198.74 69.1969 210.806C62.5777 204.086 40.5889 183.826 30.2161 197.803C29.9045 198.219 29.7361 198.724 29.7361 199.243C29.7361 199.763 29.9045 200.268 30.2161 200.683C34.7233 206.659 52.9297 230.856 58.2481 239.045C59.4561 241.008 61.147 242.63 63.1594 243.754C65.1718 244.879 67.4387 245.469 69.7441 245.469C72.0494 245.469 74.3164 244.879 76.3288 243.754C78.3412 242.63 80.032 241.008 81.2401 239.045C91.864 223.464 103.72 208.759 116.693 195.072C122.621 188.832 134.102 178.022 144.706 168.254C142.357 168.993 139.877 169.214 137.435 168.902C134.993 168.591 132.648 167.754 130.56 166.45Z" fill="white"/>
<path d="M154.522 107.16C154.522 107.16 130.757 150.12 138.739 157.176C146.722 164.232 186.442 135.36 186.442 135.36" stroke="white" stroke-width="7.2" stroke-linecap="round" stroke-linejoin="round"/>
<path d="M253.091 9.37628L271.394 25.5526C273.2 27.1485 274.298 29.3964 274.446 31.8016C274.594 34.2069 273.781 36.5727 272.185 38.3784L186.513 135.315L154.593 107.104L240.265 10.1675C241.861 8.36175 244.109 7.26396 246.514 7.11558C248.919 6.9672 251.285 7.7804 253.091 9.37628Z" stroke="white" stroke-width="7.2" stroke-linecap="round" stroke-linejoin="round"/>
<path d="M223.709 49.8431L242.88 28.1567" stroke="white" stroke-width="7.2" stroke-linecap="round" stroke-linejoin="round"/>
<path d="M205.018 70.9872L213.725 61.1328" stroke="white" stroke-width="7.2" stroke-linecap="round" stroke-linejoin="round"/>
<path d="M140.938 136.277L159.681 152.179" stroke="white" stroke-width="7.2" stroke-linecap="round" stroke-linejoin="round"/>
</g>
<defs>
<clipPath id="clip0_507_11841">
<rect width="288" height="288" fill="white"/>
</clipPath>
</defs>
</svg>
